<svg xmlns="http://www.w3.org/2000/svg" xmlns:xlink="http://www.w3.org/1999/xlink" width="1920" zoomAndPan="magnify" viewBox="0 0 1440 809.999993" height="1080" preserveAspectRatio="xMidYMid meet" version="1.2"><defs><clipPath id="6019917054"><path d="M 241 722 L 275 722 L 275 755.714844 L 241 755.714844 Z M 241 722 "/></clipPath><clipPath id="5b5bed2d4b"><path d="M 405 325 L 411.960938 325 L 411.960938 333 L 405 333 Z M 405 325 "/></clipPath><clipPath id="90e6d914ab"><path d="M 1067.15625 595 L 1079 595 L 1079 607 L 1067.15625 607 Z M 1067.15625 595 "/></clipPath></defs><g id="9322ad1e05"><rect x="0" width="1440" y="0" height="809.999993" style="fill:#ffffff;fill-opacity:1;stroke:none;"/><rect x="0" width="1440" y="0" height="809.999993" style="fill:#ffffff;fill-opacity:1;stroke:none;"/><path style=" stroke:none;fill-rule:nonzero;fill:#3e4466;fill-opacity:1;" d="M -56.371094 -140.570312 L 1439.089844 -140.570312 L 1439.089844 881.648438 L -56.371094 881.648438 Z M -56.371094 -140.570312 "/><path style=" stroke:none;fill-rule:nonzero;fill:#fcfcfd;fill-opacity:1;" d="M 367.714844 60.277344 L 361.3125 61.207031 C 361.019531 61.25 360.75 61.382812 360.535156 61.597656 C 360.328125 61.808594 360.183594 62.082031 360.144531 62.375 L 359.21875 68.777344 L 358.289062 62.371094 C 358.246094 62.078125 358.113281 61.808594 357.898438 61.59375 C 357.691406 61.386719 357.417969 61.242188 357.125 61.203125 L 350.726562 60.277344 L 357.128906 59.347656 C 357.421875 59.300781 357.691406 59.167969 357.902344 58.957031 C 358.113281 58.742188 358.253906 58.472656 358.292969 58.179688 L 359.21875 51.777344 L 360.148438 58.183594 C 360.191406 58.476562 360.324219 58.746094 360.539062 58.960938 C 360.746094 59.167969 361.023438 59.308594 361.316406 59.351562 Z M 367.714844 60.277344 "/><path style=" stroke:none;fill-rule:nonzero;fill:#fcfcfd;fill-opacity:1;" d="M 181.835938 68.777344 L 175.433594 69.707031 C 175.140625 69.753906 174.871094 69.886719 174.65625 70.097656 C 174.449219 70.3125 174.304688 70.582031 174.265625 70.875 L 173.339844 77.277344 L 172.410156 70.871094 C 172.367188 70.578125 172.234375 70.308594 172.019531 70.09375 C 171.8125 69.886719 171.539062 69.746094 171.246094 69.703125 L 164.847656 68.777344 L 171.25 67.847656 C 171.542969 67.804688 171.8125 67.671875 172.023438 67.457031 C 172.234375 67.242188 172.375 66.972656 172.414062 66.679688 L 173.339844 60.277344 L 174.269531 66.683594 C 174.3125 66.976562 174.445312 67.246094 174.660156 67.460938 C 174.867188 67.667969 175.144531 67.808594 175.4375 67.851562 Z M 181.835938 68.777344 "/><g clip-rule="nonzero" clip-path="url(#6019917054)"><path style=" stroke:none;fill-rule:nonzero;fill:#fcfcfd;fill-opacity:1;" d="M 274.476562 738.683594 L 262.121094 740.476562 C 261.554688 740.5625 261.03125 740.820312 260.621094 741.230469 C 260.214844 741.640625 259.945312 742.164062 259.867188 742.730469 L 258.082031 755.089844 L 256.289062 742.722656 C 256.203125 742.15625 255.945312 741.636719 255.535156 741.222656 C 255.128906 740.820312 254.601562 740.546875 254.035156 740.46875 L 241.683594 738.683594 L 254.042969 736.886719 C 254.609375 736.800781 255.128906 736.546875 255.542969 736.132812 C 255.945312 735.722656 256.21875 735.199219 256.296875 734.632812 L 258.082031 722.273438 L 259.875 734.640625 C 259.960938 735.207031 260.214844 735.726562 260.628906 736.140625 C 261.03125 736.546875 261.5625 736.816406 262.128906 736.894531 Z M 274.476562 738.683594 "/></g><path style=" stroke:none;fill-rule:nonzero;fill:#fcfcfd;fill-opacity:1;" d="M 54.820312 664.359375 L 46.035156 665.632812 C 45.632812 665.695312 45.261719 665.878906 44.972656 666.171875 C 44.683594 666.460938 44.492188 666.832031 44.433594 667.234375 L 43.164062 676.019531 L 41.890625 667.230469 C 41.828125 666.828125 41.644531 666.457031 41.355469 666.164062 C 41.066406 665.875 40.691406 665.683594 40.289062 665.628906 L 31.511719 664.355469 L 40.296875 663.082031 C 40.699219 663.019531 41.066406 662.835938 41.359375 662.542969 C 41.648438 662.25 41.839844 661.882812 41.894531 661.476562 L 43.167969 652.695312 L 44.441406 661.484375 C 44.5 661.886719 44.683594 662.257812 44.976562 662.550781 C 45.265625 662.839844 45.640625 663.03125 46.042969 663.085938 Z M 54.820312 664.359375 "/><path style=" stroke:none;fill-rule:nonzero;fill:#fcfcfd;fill-opacity:1;" d="M 359.8125 19.160156 L 343.882812 21.476562 C 343.148438 21.585938 342.480469 21.917969 341.949219 22.449219 C 341.429688 22.980469 341.078125 23.652344 340.976562 24.382812 L 338.675781 40.3125 L 336.359375 24.371094 C 336.25 23.640625 335.921875 22.96875 335.390625 22.4375 C 334.871094 21.917969 334.1875 21.566406 333.457031 21.464844 L 317.539062 19.160156 L 333.46875 16.847656 C 334.199219 16.738281 334.871094 16.40625 335.402344 15.875 C 335.921875 15.34375 336.273438 14.671875 336.375 13.941406 L 338.675781 -1.988281 L 340.988281 13.953125 C 341.101562 14.683594 341.429688 15.355469 341.960938 15.886719 C 342.480469 16.40625 343.164062 16.757812 343.894531 16.859375 Z M 359.8125 19.160156 "/><path style=" stroke:none;fill-rule:nonzero;fill:#fcfcfd;fill-opacity:1;" d="M 72.203125 498.316406 L 58.65625 500.285156 C 58.035156 500.375 57.464844 500.660156 57.011719 501.109375 C 56.570312 501.5625 56.269531 502.132812 56.1875 502.753906 L 54.226562 516.304688 L 52.261719 502.746094 C 52.167969 502.125 51.886719 501.554688 51.433594 501.101562 C 50.992188 500.660156 50.410156 500.359375 49.789062 500.277344 L 36.25 498.316406 L 49.796875 496.347656 C 50.417969 496.253906 50.992188 495.972656 51.441406 495.519531 C 51.882812 495.066406 52.183594 494.496094 52.269531 493.875 L 54.226562 480.328125 L 56.195312 493.882812 C 56.289062 494.503906 56.570312 495.074219 57.019531 495.527344 C 57.464844 495.972656 58.042969 496.269531 58.664062 496.355469 Z M 72.203125 498.316406 "/><path style=" stroke:none;fill-rule:nonzero;fill:#fcfcfd;fill-opacity:1;" d="M 45.339844 333.855469 L 30.601562 335.996094 C 29.921875 336.097656 29.300781 336.402344 28.8125 336.894531 C 28.332031 337.386719 28.007812 338.007812 27.914062 338.683594 L 25.785156 353.421875 L 23.644531 338.675781 C 23.542969 337.996094 23.234375 337.375 22.746094 336.886719 C 22.261719 336.402344 21.632812 336.078125 20.957031 335.984375 L 6.226562 333.855469 L 20.964844 331.714844 C 21.644531 331.613281 22.265625 331.304688 22.753906 330.8125 C 23.234375 330.320312 23.558594 329.703125 23.652344 329.023438 L 25.785156 314.285156 L 27.921875 329.035156 C 28.023438 329.710938 28.332031 330.332031 28.820312 330.824219 C 29.304688 331.304688 29.933594 331.628906 30.609375 331.722656 Z M 45.339844 333.855469 "/><path style=" stroke:none;fill-rule:nonzero;fill:#fcfcfd;fill-opacity:1;" d="M 323.464844 159.765625 C 323.15625 159.765625 322.847656 159.734375 322.542969 159.675781 C 322.234375 159.613281 321.941406 159.523438 321.652344 159.40625 C 321.363281 159.285156 321.089844 159.140625 320.832031 158.96875 C 320.574219 158.792969 320.335938 158.597656 320.113281 158.378906 C 319.894531 158.15625 319.699219 157.917969 319.523438 157.65625 C 319.351562 157.398438 319.207031 157.125 319.085938 156.839844 C 318.96875 156.550781 318.878906 156.253906 318.816406 155.949219 C 318.753906 155.640625 318.726562 155.335938 318.726562 155.023438 C 318.726562 154.710938 318.753906 154.402344 318.816406 154.097656 C 318.878906 153.792969 318.96875 153.496094 319.085938 153.207031 C 319.207031 152.917969 319.351562 152.644531 319.523438 152.386719 C 319.699219 152.128906 319.894531 151.886719 320.113281 151.667969 C 320.335938 151.449219 320.574219 151.25 320.832031 151.078125 C 321.089844 150.90625 321.363281 150.757812 321.652344 150.640625 C 321.941406 150.519531 322.234375 150.429688 322.542969 150.371094 C 322.847656 150.308594 323.15625 150.277344 323.464844 150.277344 C 323.777344 150.277344 324.085938 150.308594 324.390625 150.371094 C 324.695312 150.429688 324.992188 150.519531 325.28125 150.640625 C 325.566406 150.757812 325.839844 150.90625 326.101562 151.078125 C 326.359375 151.25 326.597656 151.449219 326.820312 151.667969 C 327.039062 151.886719 327.234375 152.128906 327.40625 152.386719 C 327.582031 152.644531 327.726562 152.917969 327.847656 153.207031 C 327.964844 153.496094 328.054688 153.792969 328.117188 154.097656 C 328.175781 154.402344 328.207031 154.710938 328.207031 155.023438 C 328.207031 155.335938 328.175781 155.640625 328.117188 155.949219 C 328.054688 156.253906 327.964844 156.550781 327.847656 156.839844 C 327.726562 157.125 327.582031 157.398438 327.40625 157.65625 C 327.234375 157.917969 327.039062 158.15625 326.820312 158.378906 C 326.597656 158.597656 326.359375 158.792969 326.101562 158.96875 C 325.839844 159.140625 325.566406 159.285156 325.28125 159.40625 C 324.992188 159.523438 324.695312 159.613281 324.390625 159.675781 C 324.085938 159.734375 323.777344 159.765625 323.464844 159.765625 Z M 323.464844 159.765625 "/><path style=" stroke:none;fill-rule:nonzero;fill:#fcfcfd;fill-opacity:1;" d="M 353.492188 185.070312 C 353.074219 185.070312 352.667969 184.988281 352.28125 184.828125 C 351.894531 184.667969 351.554688 184.4375 351.257812 184.140625 C 350.960938 183.84375 350.730469 183.503906 350.570312 183.117188 C 350.410156 182.730469 350.332031 182.324219 350.332031 181.90625 C 350.332031 181.484375 350.410156 181.082031 350.570312 180.695312 C 350.730469 180.308594 350.960938 179.964844 351.257812 179.667969 C 351.554688 179.371094 351.894531 179.144531 352.28125 178.984375 C 352.667969 178.824219 353.074219 178.742188 353.492188 178.742188 C 353.910156 178.742188 354.3125 178.824219 354.699219 178.984375 C 355.089844 179.144531 355.429688 179.371094 355.726562 179.667969 C 356.023438 179.964844 356.25 180.308594 356.410156 180.695312 C 356.570312 181.082031 356.652344 181.484375 356.652344 181.90625 C 356.652344 182.324219 356.570312 182.730469 356.410156 183.117188 C 356.25 183.503906 356.023438 183.84375 355.726562 184.140625 C 355.429688 184.4375 355.089844 184.667969 354.699219 184.828125 C 354.3125 184.988281 353.910156 185.070312 353.492188 185.070312 Z M 353.492188 185.070312 "/><path style=" stroke:none;fill-rule:nonzero;fill:#fcfcfd;fill-opacity:1;" d="M 179.660156 251.484375 C 179.242188 251.484375 178.839844 251.40625 178.453125 251.246094 C 178.066406 251.085938 177.722656 250.855469 177.425781 250.558594 C 177.128906 250.261719 176.902344 249.921875 176.742188 249.535156 C 176.582031 249.144531 176.5 248.742188 176.5 248.324219 C 176.5 247.902344 176.582031 247.5 176.742188 247.113281 C 176.902344 246.726562 177.128906 246.382812 177.425781 246.085938 C 177.722656 245.789062 178.066406 245.5625 178.453125 245.402344 C 178.839844 245.242188 179.242188 245.160156 179.660156 245.160156 C 180.082031 245.160156 180.484375 245.242188 180.871094 245.402344 C 181.257812 245.5625 181.601562 245.789062 181.898438 246.085938 C 182.191406 246.382812 182.421875 246.726562 182.582031 247.113281 C 182.742188 247.5 182.824219 247.902344 182.824219 248.324219 C 182.824219 248.742188 182.742188 249.144531 182.582031 249.535156 C 182.421875 249.921875 182.191406 250.261719 181.898438 250.558594 C 181.601562 250.855469 181.257812 251.085938 180.871094 251.246094 C 180.484375 251.40625 180.082031 251.484375 179.660156 251.484375 Z M 179.660156 251.484375 "/><path style=" stroke:none;fill-rule:nonzero;fill:#fcfcfd;fill-opacity:1;" d="M 6.226562 54.941406 C 5.808594 54.941406 5.402344 54.859375 5.015625 54.699219 C 4.628906 54.539062 4.289062 54.308594 3.992188 54.011719 C 3.695312 53.714844 3.464844 53.375 3.304688 52.988281 C 3.144531 52.597656 3.066406 52.195312 3.066406 51.777344 C 3.066406 51.355469 3.144531 50.953125 3.304688 50.566406 C 3.464844 50.179688 3.695312 49.835938 3.992188 49.539062 C 4.289062 49.242188 4.628906 49.015625 5.015625 48.855469 C 5.402344 48.695312 5.808594 48.613281 6.226562 48.613281 C 6.644531 48.613281 7.046875 48.695312 7.433594 48.855469 C 7.824219 49.015625 8.164062 49.242188 8.460938 49.539062 C 8.757812 49.835938 8.984375 50.179688 9.144531 50.566406 C 9.304688 50.953125 9.386719 51.355469 9.386719 51.777344 C 9.386719 52.195312 9.304688 52.597656 9.144531 52.988281 C 8.984375 53.375 8.757812 53.714844 8.460938 54.011719 C 8.164062 54.308594 7.824219 54.539062 7.433594 54.699219 C 7.046875 54.859375 6.644531 54.941406 6.226562 54.941406 Z M 6.226562 54.941406 "/><path style=" stroke:none;fill-rule:nonzero;fill:#fcfcfd;fill-opacity:1;" d="M 222.328125 387.484375 C 221.910156 387.484375 221.507812 387.402344 221.121094 387.242188 C 220.734375 387.082031 220.390625 386.851562 220.09375 386.558594 C 219.796875 386.261719 219.570312 385.917969 219.410156 385.53125 C 219.25 385.144531 219.167969 384.738281 219.167969 384.320312 C 219.167969 383.902344 219.25 383.496094 219.410156 383.109375 C 219.570312 382.722656 219.796875 382.378906 220.09375 382.082031 C 220.390625 381.789062 220.734375 381.558594 221.121094 381.398438 C 221.507812 381.238281 221.910156 381.15625 222.328125 381.15625 C 222.75 381.15625 223.152344 381.238281 223.539062 381.398438 C 223.925781 381.558594 224.269531 381.789062 224.5625 382.082031 C 224.859375 382.378906 225.089844 382.722656 225.25 383.109375 C 225.410156 383.496094 225.488281 383.902344 225.488281 384.320312 C 225.488281 384.738281 225.410156 385.144531 225.25 385.53125 C 225.089844 385.917969 224.859375 386.261719 224.5625 386.558594 C 224.269531 386.851562 223.925781 387.082031 223.539062 387.242188 C 223.152344 387.402344 222.75 387.484375 222.328125 387.484375 Z M 222.328125 387.484375 "/><path style=" stroke:none;fill-rule:nonzero;fill:#fcfcfd;fill-opacity:1;" d="M 257.09375 298.925781 C 256.675781 298.925781 256.273438 298.847656 255.886719 298.6875 C 255.5 298.527344 255.15625 298.296875 254.859375 298 C 254.5625 297.703125 254.335938 297.363281 254.175781 296.972656 C 254.015625 296.585938 253.933594 296.183594 253.933594 295.765625 C 253.933594 295.34375 254.015625 294.941406 254.175781 294.554688 C 254.335938 294.167969 254.5625 293.824219 254.859375 293.527344 C 255.15625 293.230469 255.5 293.003906 255.886719 292.84375 C 256.273438 292.679688 256.675781 292.601562 257.09375 292.601562 C 257.515625 292.601562 257.917969 292.679688 258.304688 292.84375 C 258.691406 293.003906 259.035156 293.230469 259.328125 293.527344 C 259.625 293.824219 259.855469 294.167969 260.015625 294.554688 C 260.175781 294.941406 260.253906 295.34375 260.253906 295.765625 C 260.253906 296.183594 260.175781 296.585938 260.015625 296.972656 C 259.855469 297.363281 259.625 297.703125 259.328125 298 C 259.035156 298.296875 258.691406 298.527344 258.304688 298.6875 C 257.917969 298.847656 257.515625 298.925781 257.09375 298.925781 Z M 257.09375 298.925781 "/><path style=" stroke:none;fill-rule:nonzero;fill:#fcfcfd;fill-opacity:1;" d="M 272.898438 298.925781 C 272.480469 298.925781 272.074219 298.847656 271.6875 298.6875 C 271.300781 298.527344 270.960938 298.296875 270.664062 298 C 270.367188 297.703125 270.136719 297.363281 269.976562 296.972656 C 269.816406 296.585938 269.738281 296.183594 269.738281 295.765625 C 269.738281 295.34375 269.816406 294.941406 269.976562 294.554688 C 270.136719 294.167969 270.367188 293.824219 270.664062 293.527344 C 270.960938 293.230469 271.300781 293.003906 271.6875 292.84375 C 272.074219 292.679688 272.480469 292.601562 272.898438 292.601562 C 273.316406 292.601562 273.71875 292.679688 274.105469 292.84375 C 274.496094 293.003906 274.835938 293.230469 275.132812 293.527344 C 275.429688 293.824219 275.65625 294.167969 275.816406 294.554688 C 275.976562 294.941406 276.058594 295.34375 276.058594 295.765625 C 276.058594 296.183594 275.976562 296.585938 275.816406 296.972656 C 275.65625 297.363281 275.429688 297.703125 275.132812 298 C 274.835938 298.296875 274.496094 298.527344 274.105469 298.6875 C 273.71875 298.847656 273.316406 298.925781 272.898438 298.925781 Z M 272.898438 298.925781 "/><path style=" stroke:none;fill-rule:nonzero;fill:#fcfcfd;fill-opacity:1;" d="M 282.378906 237.253906 C 281.960938 237.253906 281.558594 237.171875 281.167969 237.011719 C 280.78125 236.851562 280.441406 236.625 280.144531 236.328125 C 279.847656 236.03125 279.621094 235.6875 279.460938 235.300781 C 279.300781 234.914062 279.21875 234.511719 279.21875 234.089844 C 279.21875 233.671875 279.300781 233.269531 279.460938 232.878906 C 279.621094 232.492188 279.847656 232.152344 280.144531 231.855469 C 280.441406 231.558594 280.78125 231.328125 281.167969 231.167969 C 281.558594 231.007812 281.960938 230.929688 282.378906 230.929688 C 282.796875 230.929688 283.203125 231.007812 283.589844 231.167969 C 283.976562 231.328125 284.316406 231.558594 284.613281 231.855469 C 284.910156 232.152344 285.140625 232.492188 285.300781 232.878906 C 285.460938 233.269531 285.539062 233.671875 285.539062 234.089844 C 285.539062 234.511719 285.460938 234.914062 285.300781 235.300781 C 285.140625 235.6875 284.910156 236.03125 284.613281 236.328125 C 284.316406 236.625 283.976562 236.851562 283.589844 237.011719 C 283.203125 237.171875 282.796875 237.253906 282.378906 237.253906 Z M 282.378906 237.253906 "/><g clip-rule="nonzero" clip-path="url(#5b5bed2d4b)"><path style=" stroke:none;fill-rule:nonzero;fill:#fcfcfd;fill-opacity:1;" d="M 408.800781 332.136719 C 408.382812 332.136719 407.976562 332.054688 407.589844 331.894531 C 407.203125 331.734375 406.863281 331.503906 406.566406 331.210938 C 406.269531 330.914062 406.042969 330.570312 405.878906 330.183594 C 405.71875 329.796875 405.640625 329.390625 405.640625 328.972656 C 405.640625 328.554688 405.71875 328.148438 405.878906 327.761719 C 406.042969 327.375 406.269531 327.03125 406.566406 326.734375 C 406.863281 326.441406 407.203125 326.210938 407.589844 326.050781 C 407.976562 325.890625 408.382812 325.808594 408.800781 325.808594 C 409.21875 325.808594 409.621094 325.890625 410.011719 326.050781 C 410.398438 326.210938 410.738281 326.441406 411.035156 326.734375 C 411.332031 327.03125 411.558594 327.375 411.71875 327.761719 C 411.882812 328.148438 411.960938 328.554688 411.960938 328.972656 C 411.960938 329.390625 411.882812 329.796875 411.71875 330.183594 C 411.558594 330.570312 411.332031 330.914062 411.035156 331.210938 C 410.738281 331.503906 410.398438 331.734375 410.011719 331.894531 C 409.621094 332.054688 409.21875 332.136719 408.800781 332.136719 Z M 408.800781 332.136719 "/></g><path style=" stroke:none;fill-rule:nonzero;fill:#fcfcfd;fill-opacity:1;" d="M 110.128906 398.550781 C 109.710938 398.550781 109.308594 398.472656 108.921875 398.3125 C 108.535156 398.152344 108.191406 397.921875 107.894531 397.625 C 107.597656 397.328125 107.371094 396.988281 107.210938 396.601562 C 107.050781 396.210938 106.96875 395.808594 106.96875 395.390625 C 106.96875 394.96875 107.050781 394.566406 107.210938 394.179688 C 107.371094 393.792969 107.597656 393.449219 107.894531 393.152344 C 108.191406 392.855469 108.535156 392.628906 108.921875 392.46875 C 109.308594 392.308594 109.710938 392.226562 110.128906 392.226562 C 110.550781 392.226562 110.953125 392.308594 111.339844 392.46875 C 111.726562 392.628906 112.070312 392.855469 112.363281 393.152344 C 112.660156 393.449219 112.890625 393.792969 113.050781 394.179688 C 113.210938 394.566406 113.289062 394.96875 113.289062 395.390625 C 113.289062 395.808594 113.210938 396.210938 113.050781 396.601562 C 112.890625 396.988281 112.660156 397.328125 112.363281 397.625 C 112.070312 397.921875 111.726562 398.152344 111.339844 398.3125 C 110.953125 398.472656 110.550781 398.550781 110.128906 398.550781 Z M 110.128906 398.550781 "/><path style=" stroke:none;fill-rule:nonzero;fill:#fcfcfd;fill-opacity:1;" d="M 149.636719 699.011719 C 149.324219 699.011719 149.015625 698.980469 148.710938 698.921875 C 148.40625 698.859375 148.109375 698.769531 147.824219 698.652344 C 147.535156 698.53125 147.261719 698.386719 147.003906 698.210938 C 146.746094 698.039062 146.503906 697.84375 146.285156 697.621094 C 146.066406 697.402344 145.867188 697.164062 145.695312 696.902344 C 145.523438 696.644531 145.375 696.371094 145.257812 696.082031 C 145.136719 695.796875 145.046875 695.5 144.988281 695.195312 C 144.925781 694.886719 144.894531 694.578125 144.894531 694.269531 C 144.894531 693.957031 144.925781 693.648438 144.988281 693.34375 C 145.046875 693.035156 145.136719 692.738281 145.257812 692.453125 C 145.375 692.164062 145.523438 691.890625 145.695312 691.632812 C 145.867188 691.375 146.066406 691.132812 146.285156 690.914062 C 146.503906 690.691406 146.746094 690.496094 147.003906 690.324219 C 147.261719 690.148438 147.535156 690.003906 147.824219 689.886719 C 148.109375 689.765625 148.40625 689.675781 148.710938 689.613281 C 149.015625 689.554688 149.324219 689.523438 149.636719 689.523438 C 149.949219 689.523438 150.257812 689.554688 150.5625 689.613281 C 150.867188 689.675781 151.164062 689.765625 151.449219 689.886719 C 151.738281 690.003906 152.011719 690.148438 152.269531 690.324219 C 152.53125 690.496094 152.769531 690.691406 152.988281 690.914062 C 153.210938 691.132812 153.40625 691.375 153.578125 691.632812 C 153.75 691.890625 153.898438 692.164062 154.015625 692.453125 C 154.136719 692.738281 154.226562 693.035156 154.285156 693.34375 C 154.347656 693.648438 154.378906 693.957031 154.378906 694.269531 C 154.378906 694.578125 154.347656 694.886719 154.285156 695.195312 C 154.226562 695.5 154.136719 695.796875 154.015625 696.082031 C 153.898438 696.371094 153.75 696.644531 153.578125 696.902344 C 153.40625 697.164062 153.210938 697.402344 152.988281 697.621094 C 152.769531 697.84375 152.53125 698.039062 152.269531 698.210938 C 152.011719 698.386719 151.738281 698.53125 151.449219 698.652344 C 151.164062 698.769531 150.867188 698.859375 150.5625 698.921875 C 150.257812 698.980469 149.949219 699.011719 149.636719 699.011719 Z M 149.636719 699.011719 "/><path style=" stroke:none;fill-rule:nonzero;fill:#fcfcfd;fill-opacity:1;" d="M 179.660156 218.277344 C 179.351562 218.277344 179.042969 218.246094 178.738281 218.1875 C 178.433594 218.125 178.136719 218.035156 177.847656 217.914062 C 177.558594 217.796875 177.285156 217.652344 177.027344 217.476562 C 176.769531 217.304688 176.53125 217.109375 176.308594 216.886719 C 176.089844 216.667969 175.894531 216.425781 175.71875 216.167969 C 175.546875 215.910156 175.402344 215.636719 175.28125 215.347656 C 175.164062 215.0625 175.074219 214.765625 175.011719 214.457031 C 174.953125 214.152344 174.921875 213.84375 174.921875 213.53125 C 174.921875 213.222656 174.953125 212.914062 175.011719 212.609375 C 175.074219 212.300781 175.164062 212.003906 175.28125 211.71875 C 175.402344 211.429688 175.546875 211.15625 175.71875 210.898438 C 175.894531 210.636719 176.089844 210.398438 176.308594 210.179688 C 176.53125 209.957031 176.769531 209.761719 177.027344 209.589844 C 177.285156 209.414062 177.558594 209.269531 177.847656 209.148438 C 178.136719 209.03125 178.433594 208.941406 178.738281 208.878906 C 179.042969 208.820312 179.351562 208.789062 179.660156 208.789062 C 179.972656 208.789062 180.28125 208.820312 180.585938 208.878906 C 180.890625 208.941406 181.1875 209.03125 181.476562 209.148438 C 181.765625 209.269531 182.035156 209.414062 182.296875 209.589844 C 182.554688 209.761719 182.792969 209.957031 183.015625 210.179688 C 183.234375 210.398438 183.429688 210.636719 183.605469 210.898438 C 183.777344 211.15625 183.921875 211.429688 184.042969 211.71875 C 184.160156 212.003906 184.25 212.300781 184.3125 212.609375 C 184.371094 212.914062 184.402344 213.222656 184.402344 213.53125 C 184.402344 213.84375 184.371094 214.152344 184.3125 214.457031 C 184.25 214.765625 184.160156 215.0625 184.042969 215.347656 C 183.921875 215.636719 183.777344 215.910156 183.605469 216.167969 C 183.429688 216.425781 183.234375 216.667969 183.015625 216.886719 C 182.792969 217.109375 182.554688 217.304688 182.296875 217.476562 C 182.035156 217.652344 181.765625 217.796875 181.476562 217.914062 C 181.1875 218.035156 180.890625 218.125 180.585938 218.1875 C 180.28125 218.246094 179.972656 218.277344 179.660156 218.277344 Z M 179.660156 218.277344 "/><path style=" stroke:none;fill-rule:nonzero;fill:#fcfcfd;fill-opacity:1;" d="M 105.390625 507.667969 C 105.078125 507.667969 104.769531 507.636719 104.464844 507.574219 C 104.160156 507.515625 103.863281 507.425781 103.574219 507.304688 C 103.289062 507.1875 103.015625 507.039062 102.753906 506.867188 C 102.496094 506.695312 102.257812 506.496094 102.035156 506.277344 C 101.816406 506.058594 101.621094 505.816406 101.449219 505.558594 C 101.273438 505.300781 101.128906 505.027344 101.007812 504.738281 C 100.890625 504.449219 100.800781 504.152344 100.738281 503.847656 C 100.679688 503.542969 100.648438 503.234375 100.648438 502.921875 C 100.648438 502.609375 100.679688 502.304688 100.738281 501.996094 C 100.800781 501.691406 100.890625 501.394531 101.007812 501.105469 C 101.128906 500.820312 101.273438 500.546875 101.449219 500.285156 C 101.621094 500.027344 101.816406 499.789062 102.035156 499.566406 C 102.257812 499.347656 102.496094 499.152344 102.753906 498.976562 C 103.015625 498.804688 103.289062 498.660156 103.574219 498.539062 C 103.863281 498.421875 104.160156 498.332031 104.464844 498.269531 C 104.769531 498.210938 105.078125 498.179688 105.390625 498.179688 C 105.699219 498.179688 106.007812 498.210938 106.3125 498.269531 C 106.621094 498.332031 106.917969 498.421875 107.203125 498.539062 C 107.492188 498.660156 107.765625 498.804688 108.023438 498.976562 C 108.28125 499.152344 108.523438 499.347656 108.742188 499.566406 C 108.960938 499.789062 109.160156 500.027344 109.332031 500.285156 C 109.503906 500.546875 109.648438 500.820312 109.769531 501.105469 C 109.886719 501.394531 109.976562 501.691406 110.039062 501.996094 C 110.101562 502.304688 110.128906 502.609375 110.128906 502.921875 C 110.128906 503.234375 110.101562 503.542969 110.039062 503.847656 C 109.976562 504.152344 109.886719 504.449219 109.769531 504.738281 C 109.648438 505.027344 109.503906 505.300781 109.332031 505.558594 C 109.160156 505.816406 108.960938 506.058594 108.742188 506.277344 C 108.523438 506.496094 108.28125 506.695312 108.023438 506.867188 C 107.765625 507.039062 107.492188 507.1875 107.203125 507.304688 C 106.917969 507.425781 106.621094 507.515625 106.3125 507.574219 C 106.007812 507.636719 105.699219 507.667969 105.390625 507.667969 Z M 105.390625 507.667969 "/><path style=" stroke:none;fill-rule:nonzero;fill:#fcfcfd;fill-opacity:1;" d="M 225.488281 161.347656 C 225.179688 161.347656 224.871094 161.316406 224.566406 161.257812 C 224.257812 161.195312 223.964844 161.105469 223.675781 160.988281 C 223.386719 160.867188 223.113281 160.722656 222.855469 160.546875 C 222.597656 160.375 222.359375 160.179688 222.136719 159.957031 C 221.917969 159.738281 221.722656 159.5 221.546875 159.238281 C 221.375 158.980469 221.230469 158.707031 221.109375 158.417969 C 220.992188 158.132812 220.902344 157.835938 220.839844 157.53125 C 220.777344 157.222656 220.75 156.914062 220.75 156.605469 C 220.75 156.292969 220.777344 155.984375 220.839844 155.679688 C 220.902344 155.371094 220.992188 155.078125 221.109375 154.789062 C 221.230469 154.5 221.375 154.226562 221.546875 153.96875 C 221.722656 153.710938 221.917969 153.46875 222.136719 153.25 C 222.359375 153.027344 222.597656 152.832031 222.855469 152.660156 C 223.113281 152.484375 223.386719 152.339844 223.675781 152.222656 C 223.964844 152.101562 224.257812 152.011719 224.566406 151.949219 C 224.871094 151.890625 225.179688 151.859375 225.488281 151.859375 C 225.800781 151.859375 226.109375 151.890625 226.414062 151.949219 C 226.71875 152.011719 227.015625 152.101562 227.304688 152.222656 C 227.589844 152.339844 227.863281 152.484375 228.125 152.660156 C 228.382812 152.832031 228.621094 153.027344 228.84375 153.25 C 229.0625 153.46875 229.257812 153.710938 229.429688 153.96875 C 229.605469 154.226562 229.75 154.5 229.871094 154.789062 C 229.988281 155.078125 230.078125 155.371094 230.140625 155.679688 C 230.199219 155.984375 230.230469 156.292969 230.230469 156.605469 C 230.230469 156.914062 230.199219 157.222656 230.140625 157.53125 C 230.078125 157.835938 229.988281 158.132812 229.871094 158.417969 C 229.75 158.707031 229.605469 158.980469 229.429688 159.238281 C 229.257812 159.5 229.0625 159.738281 228.84375 159.957031 C 228.621094 160.179688 228.382812 160.375 228.125 160.546875 C 227.863281 160.722656 227.589844 160.867188 227.304688 160.988281 C 227.015625 161.105469 226.71875 161.195312 226.414062 161.257812 C 226.109375 161.316406 225.800781 161.347656 225.488281 161.347656 Z M 225.488281 161.347656 "/><path style=" stroke:none;fill-rule:nonzero;fill:#fcfcfd;fill-opacity:1;" d="M 130.648438 725.4375 C 130.226562 725.4375 129.824219 725.359375 129.4375 725.199219 C 129.050781 725.035156 128.707031 724.808594 128.410156 724.511719 C 128.117188 724.214844 127.886719 723.875 127.726562 723.484375 C 127.566406 723.097656 127.484375 722.695312 127.484375 722.277344 C 127.484375 721.855469 127.566406 721.453125 127.726562 721.066406 C 127.886719 720.675781 128.117188 720.335938 128.410156 720.039062 C 128.707031 719.742188 129.050781 719.515625 129.4375 719.351562 C 129.824219 719.191406 130.226562 719.113281 130.648438 719.113281 C 131.066406 719.113281 131.46875 719.191406 131.855469 719.351562 C 132.242188 719.515625 132.585938 719.742188 132.882812 720.039062 C 133.179688 720.335938 133.40625 720.675781 133.566406 721.066406 C 133.726562 721.453125 133.808594 721.855469 133.808594 722.277344 C 133.808594 722.695312 133.726562 723.097656 133.566406 723.484375 C 133.40625 723.875 133.179688 724.214844 132.882812 724.511719 C 132.585938 724.808594 132.242188 725.035156 131.855469 725.199219 C 131.46875 725.359375 131.066406 725.4375 130.648438 725.4375 Z M 130.648438 725.4375 "/><path style=" stroke:none;fill-rule:nonzero;fill:#fcfcfd;fill-opacity:1;" d="M 173.339844 743.144531 C 173.03125 743.144531 172.722656 743.117188 172.414062 743.054688 C 172.109375 742.996094 171.8125 742.90625 171.527344 742.785156 C 171.238281 742.664062 170.964844 742.519531 170.707031 742.347656 C 170.449219 742.171875 170.207031 741.976562 169.988281 741.757812 C 169.769531 741.535156 169.570312 741.296875 169.398438 741.039062 C 169.226562 740.777344 169.082031 740.503906 168.960938 740.21875 C 168.84375 739.929688 168.75 739.632812 168.691406 739.328125 C 168.628906 739.023438 168.601562 738.714844 168.601562 738.402344 C 168.601562 738.089844 168.628906 737.78125 168.691406 737.476562 C 168.75 737.171875 168.84375 736.875 168.960938 736.585938 C 169.082031 736.296875 169.226562 736.027344 169.398438 735.765625 C 169.570312 735.507812 169.769531 735.269531 169.988281 735.046875 C 170.207031 734.828125 170.449219 734.628906 170.707031 734.457031 C 170.964844 734.285156 171.238281 734.136719 171.527344 734.019531 C 171.8125 733.898438 172.109375 733.808594 172.414062 733.75 C 172.722656 733.6875 173.03125 733.65625 173.339844 733.65625 C 173.652344 733.65625 173.960938 733.6875 174.265625 733.75 C 174.570312 733.808594 174.867188 733.898438 175.15625 734.019531 C 175.441406 734.136719 175.714844 734.285156 175.976562 734.457031 C 176.234375 734.628906 176.472656 734.828125 176.691406 735.046875 C 176.914062 735.269531 177.109375 735.507812 177.28125 735.765625 C 177.457031 736.023438 177.601562 736.296875 177.722656 736.585938 C 177.839844 736.875 177.929688 737.171875 177.992188 737.476562 C 178.050781 737.78125 178.082031 738.089844 178.082031 738.402344 C 178.082031 738.714844 178.050781 739.023438 177.992188 739.328125 C 177.929688 739.632812 177.839844 739.929688 177.722656 740.21875 C 177.601562 740.503906 177.457031 740.777344 177.28125 741.039062 C 177.109375 741.296875 176.914062 741.535156 176.691406 741.757812 C 176.472656 741.976562 176.234375 742.171875 175.976562 742.347656 C 175.714844 742.519531 175.441406 742.664062 175.15625 742.785156 C 174.867188 742.90625 174.570312 742.996094 174.265625 743.054688 C 173.960938 743.117188 173.652344 743.144531 173.339844 743.144531 Z M 173.339844 743.144531 "/><path style=" stroke:none;fill-rule:nonzero;fill:#fcfcfd;fill-opacity:1;" d="M 72.203125 593.0625 C 71.785156 593.058594 71.382812 592.980469 70.996094 592.820312 C 70.605469 592.660156 70.265625 592.429688 69.96875 592.132812 C 69.671875 591.835938 69.445312 591.496094 69.285156 591.109375 C 69.125 590.71875 69.042969 590.316406 69.042969 589.898438 C 69.042969 589.476562 69.125 589.074219 69.285156 588.6875 C 69.445312 588.300781 69.671875 587.957031 69.96875 587.660156 C 70.265625 587.363281 70.605469 587.136719 70.996094 586.976562 C 71.382812 586.816406 71.785156 586.734375 72.203125 586.734375 C 72.621094 586.734375 73.027344 586.816406 73.414062 586.976562 C 73.800781 587.136719 74.140625 587.363281 74.4375 587.660156 C 74.734375 587.957031 74.964844 588.300781 75.125 588.6875 C 75.285156 589.074219 75.363281 589.476562 75.363281 589.898438 C 75.363281 590.316406 75.285156 590.71875 75.125 591.109375 C 74.964844 591.496094 74.734375 591.835938 74.4375 592.132812 C 74.140625 592.429688 73.800781 592.660156 73.414062 592.820312 C 73.027344 592.980469 72.621094 593.058594 72.203125 593.0625 Z M 72.203125 593.0625 "/><path style=" stroke:none;fill-rule:nonzero;fill:#fcfcfd;fill-opacity:1;" d="M 104.039062 361.808594 C 103.699219 361.808594 103.375 361.746094 103.0625 361.613281 C 102.746094 361.484375 102.46875 361.300781 102.230469 361.058594 C 101.992188 360.820312 101.804688 360.542969 101.675781 360.230469 C 101.546875 359.914062 101.480469 359.589844 101.480469 359.25 C 101.480469 358.910156 101.546875 358.582031 101.675781 358.269531 C 101.804688 357.957031 101.992188 357.679688 102.230469 357.4375 C 102.46875 357.199219 102.746094 357.015625 103.0625 356.882812 C 103.375 356.753906 103.699219 356.6875 104.039062 356.6875 C 104.378906 356.6875 104.707031 356.753906 105.019531 356.882812 C 105.332031 357.015625 105.609375 357.199219 105.847656 357.4375 C 106.089844 357.679688 106.273438 357.957031 106.402344 358.269531 C 106.535156 358.582031 106.597656 358.910156 106.597656 359.25 C 106.597656 359.589844 106.535156 359.914062 106.402344 360.230469 C 106.273438 360.542969 106.089844 360.820312 105.847656 361.058594 C 105.609375 361.300781 105.332031 361.484375 105.019531 361.613281 C 104.707031 361.746094 104.378906 361.808594 104.039062 361.808594 Z M 104.039062 361.808594 "/><path style=" stroke:none;fill-rule:nonzero;fill:#fcfcfd;fill-opacity:1;" d="M 255.515625 44.328125 C 255.09375 44.328125 254.691406 44.246094 254.304688 44.085938 C 253.917969 43.925781 253.578125 43.695312 253.28125 43.402344 C 252.984375 43.105469 252.753906 42.761719 252.59375 42.375 C 252.433594 41.988281 252.355469 41.582031 252.355469 41.164062 C 252.355469 40.746094 252.433594 40.339844 252.59375 39.953125 C 252.753906 39.566406 252.984375 39.222656 253.28125 38.929688 C 253.578125 38.632812 253.917969 38.402344 254.304688 38.242188 C 254.691406 38.082031 255.09375 38 255.515625 38 C 255.933594 38 256.335938 38.082031 256.722656 38.242188 C 257.113281 38.402344 257.453125 38.632812 257.75 38.929688 C 258.046875 39.222656 258.273438 39.566406 258.433594 39.953125 C 258.59375 40.339844 258.675781 40.746094 258.675781 41.164062 C 258.675781 41.582031 258.59375 41.988281 258.433594 42.375 C 258.273438 42.761719 258.046875 43.105469 257.75 43.402344 C 257.453125 43.695312 257.113281 43.925781 256.722656 44.085938 C 256.335938 44.246094 255.933594 44.328125 255.515625 44.328125 Z M 255.515625 44.328125 "/><path style=" stroke:none;fill-rule:nonzero;fill:#fcfcfd;fill-opacity:1;" d="M 173.339844 403.433594 L 166.9375 404.363281 C 166.644531 404.40625 166.375 404.539062 166.164062 404.753906 C 165.953125 404.964844 165.8125 405.238281 165.773438 405.53125 L 164.847656 411.933594 L 163.917969 405.527344 C 163.875 405.234375 163.742188 404.960938 163.527344 404.75 C 163.320312 404.542969 163.042969 404.398438 162.75 404.359375 L 156.351562 403.433594 L 162.753906 402.503906 C 163.046875 402.457031 163.316406 402.324219 163.53125 402.113281 C 163.738281 401.898438 163.882812 401.628906 163.921875 401.335938 L 164.847656 394.933594 L 165.777344 401.339844 C 165.820312 401.632812 165.953125 401.902344 166.167969 402.117188 C 166.375 402.324219 166.648438 402.464844 166.941406 402.507812 Z M 173.339844 403.433594 "/><path style=" stroke:none;fill-rule:nonzero;fill:#fcfcfd;fill-opacity:1;" d="M 1345.308594 141.171875 L 1337.960938 142.242188 C 1337.625 142.292969 1337.316406 142.445312 1337.070312 142.6875 C 1336.832031 142.933594 1336.667969 143.242188 1336.625 143.578125 L 1335.558594 150.925781 L 1334.492188 143.574219 C 1334.441406 143.238281 1334.289062 142.929688 1334.046875 142.683594 C 1333.808594 142.445312 1333.492188 142.28125 1333.15625 142.238281 L 1325.8125 141.171875 L 1333.160156 140.105469 C 1333.496094 140.054688 1333.804688 139.902344 1334.050781 139.660156 C 1334.289062 139.414062 1334.453125 139.105469 1334.496094 138.769531 L 1335.558594 131.421875 L 1336.625 138.769531 C 1336.675781 139.105469 1336.828125 139.414062 1337.074219 139.660156 C 1337.3125 139.898438 1337.628906 140.0625 1337.964844 140.109375 Z M 1345.308594 141.171875 "/><path style=" stroke:none;fill-rule:nonzero;fill:#fcfcfd;fill-opacity:1;" d="M 1219.492188 633.949219 L 1203.945312 636.207031 C 1203.234375 636.316406 1202.578125 636.636719 1202.058594 637.15625 C 1201.550781 637.675781 1201.210938 638.332031 1201.113281 639.042969 L 1198.863281 654.589844 L 1196.605469 639.035156 C 1196.5 638.320312 1196.175781 637.667969 1195.65625 637.148438 C 1195.148438 636.640625 1194.484375 636.296875 1193.773438 636.199219 L 1178.234375 633.953125 L 1193.78125 631.691406 C 1194.492188 631.585938 1195.148438 631.261719 1195.667969 630.742188 C 1196.175781 630.226562 1196.519531 629.570312 1196.617188 628.855469 L 1198.863281 613.3125 L 1201.121094 628.867188 C 1201.226562 629.578125 1201.550781 630.234375 1202.070312 630.753906 C 1202.578125 631.261719 1203.242188 631.605469 1203.957031 631.703125 Z M 1219.492188 633.949219 "/><path style=" stroke:none;fill-rule:nonzero;fill:#fcfcfd;fill-opacity:1;" d="M 1188.664062 445.277344 L 1171.75 447.734375 C 1170.972656 447.847656 1170.257812 448.199219 1169.695312 448.765625 C 1169.144531 449.328125 1168.773438 450.039062 1168.664062 450.816406 L 1166.21875 467.726562 L 1163.765625 450.804688 C 1163.648438 450.03125 1163.296875 449.316406 1162.734375 448.753906 C 1162.179688 448.199219 1161.457031 447.828125 1160.683594 447.722656 L 1143.777344 445.277344 L 1160.691406 442.820312 C 1161.46875 442.703125 1162.183594 442.351562 1162.742188 441.789062 C 1163.296875 441.222656 1163.667969 440.511719 1163.777344 439.734375 L 1166.21875 422.824219 L 1168.675781 439.746094 C 1168.792969 440.523438 1169.144531 441.234375 1169.707031 441.796875 C 1170.261719 442.351562 1170.984375 442.722656 1171.757812 442.832031 Z M 1188.664062 445.277344 "/><path style=" stroke:none;fill-rule:nonzero;fill:#fcfcfd;fill-opacity:1;" d="M 1193.890625 51.441406 C 1193.410156 51.441406 1192.949219 51.347656 1192.503906 51.164062 C 1192.058594 50.980469 1191.667969 50.71875 1191.328125 50.378906 C 1190.988281 50.039062 1190.726562 49.644531 1190.539062 49.199219 C 1190.355469 48.757812 1190.265625 48.292969 1190.265625 47.8125 C 1190.265625 47.332031 1190.355469 46.867188 1190.539062 46.421875 C 1190.726562 45.980469 1190.988281 45.585938 1191.328125 45.246094 C 1191.667969 44.90625 1192.058594 44.644531 1192.503906 44.460938 C 1192.949219 44.277344 1193.410156 44.183594 1193.890625 44.183594 C 1194.371094 44.183594 1194.835938 44.277344 1195.28125 44.460938 C 1195.722656 44.644531 1196.117188 44.90625 1196.457031 45.246094 C 1196.796875 45.585938 1197.058594 45.980469 1197.242188 46.421875 C 1197.425781 46.867188 1197.519531 47.332031 1197.519531 47.8125 C 1197.519531 48.292969 1197.425781 48.757812 1197.242188 49.199219 C 1197.058594 49.644531 1196.796875 50.039062 1196.457031 50.378906 C 1196.117188 50.71875 1195.722656 50.980469 1195.28125 51.164062 C 1194.835938 51.347656 1194.371094 51.441406 1193.890625 51.441406 Z M 1193.890625 51.441406 "/><path style=" stroke:none;fill-rule:nonzero;fill:#fcfcfd;fill-opacity:1;" d="M 1342.816406 350.78125 C 1342.332031 350.78125 1341.871094 350.6875 1341.425781 350.503906 C 1340.980469 350.320312 1340.589844 350.058594 1340.25 349.71875 C 1339.910156 349.378906 1339.648438 348.984375 1339.464844 348.539062 C 1339.28125 348.097656 1339.1875 347.632812 1339.1875 347.152344 C 1339.1875 346.671875 1339.28125 346.207031 1339.464844 345.765625 C 1339.648438 345.320312 1339.910156 344.925781 1340.25 344.585938 C 1340.589844 344.246094 1340.980469 343.984375 1341.425781 343.800781 C 1341.871094 343.617188 1342.332031 343.523438 1342.816406 343.523438 C 1343.296875 343.523438 1343.757812 343.617188 1344.203125 343.800781 C 1344.648438 343.984375 1345.039062 344.246094 1345.378906 344.585938 C 1345.71875 344.925781 1345.980469 345.320312 1346.164062 345.765625 C 1346.351562 346.207031 1346.441406 346.671875 1346.441406 347.152344 C 1346.441406 347.632812 1346.351562 348.097656 1346.164062 348.539062 C 1345.980469 348.984375 1345.71875 349.378906 1345.378906 349.71875 C 1345.039062 350.058594 1344.648438 350.320312 1344.203125 350.503906 C 1343.757812 350.6875 1343.296875 350.78125 1342.816406 350.78125 Z M 1342.816406 350.78125 "/><path style=" stroke:none;fill-rule:nonzero;fill:#fcfcfd;fill-opacity:1;" d="M 1143.777344 125.296875 C 1143.296875 125.296875 1142.832031 125.207031 1142.386719 125.019531 C 1141.945312 124.835938 1141.550781 124.574219 1141.210938 124.234375 C 1140.871094 123.894531 1140.609375 123.503906 1140.425781 123.058594 C 1140.242188 122.613281 1140.148438 122.148438 1140.148438 121.667969 C 1140.148438 121.1875 1140.242188 120.726562 1140.425781 120.28125 C 1140.609375 119.835938 1140.871094 119.445312 1141.210938 119.105469 C 1141.550781 118.761719 1141.945312 118.5 1142.386719 118.316406 C 1142.832031 118.132812 1143.296875 118.039062 1143.777344 118.039062 C 1144.257812 118.039062 1144.71875 118.132812 1145.164062 118.316406 C 1145.609375 118.5 1146 118.761719 1146.339844 119.105469 C 1146.679688 119.445312 1146.941406 119.835938 1147.128906 120.28125 C 1147.3125 120.726562 1147.402344 121.1875 1147.402344 121.667969 C 1147.402344 122.148438 1147.3125 122.613281 1147.128906 123.058594 C 1146.941406 123.503906 1146.679688 123.894531 1146.339844 124.234375 C 1146 124.574219 1145.609375 124.835938 1145.164062 125.019531 C 1144.71875 125.207031 1144.257812 125.296875 1143.777344 125.296875 Z M 1143.777344 125.296875 "/><path style=" stroke:none;fill-rule:nonzero;fill:#fcfcfd;fill-opacity:1;" d="M 1391.78125 506.800781 C 1391.300781 506.800781 1390.835938 506.707031 1390.390625 506.523438 C 1389.949219 506.339844 1389.554688 506.078125 1389.214844 505.738281 C 1388.875 505.398438 1388.613281 505.003906 1388.429688 504.5625 C 1388.246094 504.117188 1388.152344 503.652344 1388.152344 503.171875 C 1388.152344 502.691406 1388.246094 502.226562 1388.429688 501.785156 C 1388.613281 501.339844 1388.875 500.945312 1389.214844 500.605469 C 1389.554688 500.265625 1389.949219 500.003906 1390.390625 499.820312 C 1390.835938 499.636719 1391.300781 499.542969 1391.78125 499.542969 C 1392.261719 499.542969 1392.722656 499.636719 1393.167969 499.820312 C 1393.613281 500.003906 1394.003906 500.265625 1394.34375 500.605469 C 1394.683594 500.945312 1394.945312 501.339844 1395.132812 501.785156 C 1395.316406 502.226562 1395.40625 502.691406 1395.40625 503.171875 C 1395.40625 503.652344 1395.316406 504.117188 1395.132812 504.5625 C 1394.945312 505.003906 1394.683594 505.398438 1394.34375 505.738281 C 1394.003906 506.078125 1393.613281 506.339844 1393.167969 506.523438 C 1392.722656 506.707031 1392.261719 506.800781 1391.78125 506.800781 Z M 1391.78125 506.800781 "/><path style=" stroke:none;fill-rule:nonzero;fill:#fcfcfd;fill-opacity:1;" d="M 1431.679688 405.207031 C 1431.199219 405.207031 1430.734375 405.113281 1430.289062 404.929688 C 1429.847656 404.746094 1429.453125 404.484375 1429.113281 404.144531 C 1428.773438 403.804688 1428.511719 403.410156 1428.328125 402.964844 C 1428.144531 402.523438 1428.050781 402.058594 1428.050781 401.578125 C 1428.050781 401.097656 1428.144531 400.632812 1428.328125 400.191406 C 1428.511719 399.746094 1428.773438 399.351562 1429.113281 399.011719 C 1429.453125 398.671875 1429.847656 398.410156 1430.289062 398.226562 C 1430.734375 398.042969 1431.199219 397.949219 1431.679688 397.949219 C 1432.160156 397.949219 1432.621094 398.042969 1433.066406 398.226562 C 1433.511719 398.410156 1433.902344 398.671875 1434.242188 399.011719 C 1434.582031 399.351562 1434.84375 399.746094 1435.03125 400.191406 C 1435.214844 400.632812 1435.304688 401.097656 1435.304688 401.578125 C 1435.304688 402.058594 1435.214844 402.523438 1435.03125 402.964844 C 1434.84375 403.410156 1434.582031 403.804688 1434.242188 404.144531 C 1433.902344 404.484375 1433.511719 404.746094 1433.066406 404.929688 C 1432.621094 405.113281 1432.160156 405.207031 1431.679688 405.207031 Z M 1431.679688 405.207031 "/><path style=" stroke:none;fill-rule:nonzero;fill:#fcfcfd;fill-opacity:1;" d="M 1086.5 347.152344 C 1086.019531 347.152344 1085.558594 347.058594 1085.113281 346.875 C 1084.667969 346.691406 1084.277344 346.429688 1083.9375 346.089844 C 1083.597656 345.75 1083.332031 345.355469 1083.148438 344.914062 C 1082.964844 344.46875 1082.875 344.003906 1082.875 343.523438 C 1082.875 343.042969 1082.964844 342.582031 1083.148438 342.136719 C 1083.332031 341.691406 1083.597656 341.296875 1083.9375 340.957031 C 1084.277344 340.617188 1084.667969 340.355469 1085.113281 340.171875 C 1085.558594 339.988281 1086.019531 339.894531 1086.5 339.894531 C 1086.980469 339.894531 1087.445312 339.988281 1087.890625 340.171875 C 1088.332031 340.355469 1088.726562 340.617188 1089.066406 340.957031 C 1089.40625 341.296875 1089.667969 341.691406 1089.851562 342.136719 C 1090.035156 342.582031 1090.128906 343.042969 1090.128906 343.523438 C 1090.128906 344.003906 1090.035156 344.46875 1089.851562 344.914062 C 1089.667969 345.355469 1089.40625 345.75 1089.066406 346.089844 C 1088.726562 346.429688 1088.332031 346.691406 1087.890625 346.875 C 1087.445312 347.058594 1086.980469 347.152344 1086.5 347.152344 Z M 1086.5 347.152344 "/><path style=" stroke:none;fill-rule:nonzero;fill:#fcfcfd;fill-opacity:1;" d="M 1263.019531 519.5 C 1262.539062 519.5 1262.074219 519.40625 1261.628906 519.222656 C 1261.1875 519.039062 1260.792969 518.777344 1260.453125 518.4375 C 1260.113281 518.097656 1259.851562 517.703125 1259.667969 517.261719 C 1259.484375 516.816406 1259.390625 516.351562 1259.390625 515.871094 C 1259.390625 515.390625 1259.484375 514.925781 1259.667969 514.484375 C 1259.851562 514.039062 1260.113281 513.644531 1260.453125 513.304688 C 1260.792969 512.964844 1261.1875 512.703125 1261.628906 512.519531 C 1262.074219 512.335938 1262.539062 512.242188 1263.019531 512.242188 C 1263.5 512.242188 1263.960938 512.335938 1264.40625 512.519531 C 1264.851562 512.703125 1265.242188 512.964844 1265.582031 513.304688 C 1265.921875 513.644531 1266.1875 514.039062 1266.371094 514.484375 C 1266.554688 514.925781 1266.644531 515.390625 1266.644531 515.871094 C 1266.644531 516.351562 1266.554688 516.816406 1266.371094 517.261719 C 1266.1875 517.703125 1265.921875 518.097656 1265.582031 518.4375 C 1265.242188 518.777344 1264.851562 519.039062 1264.40625 519.222656 C 1263.960938 519.40625 1263.5 519.5 1263.019531 519.5 Z M 1263.019531 519.5 "/><path style=" stroke:none;fill-rule:nonzero;fill:#fcfcfd;fill-opacity:1;" d="M 1127.566406 191.734375 C 1127.085938 191.734375 1126.613281 191.6875 1126.140625 191.59375 C 1125.671875 191.5 1125.214844 191.359375 1124.773438 191.179688 C 1124.332031 190.996094 1123.910156 190.769531 1123.511719 190.503906 C 1123.117188 190.238281 1122.746094 189.933594 1122.410156 189.597656 C 1122.070312 189.257812 1121.769531 188.890625 1121.5 188.492188 C 1121.234375 188.09375 1121.011719 187.671875 1120.828125 187.230469 C 1120.644531 186.789062 1120.507812 186.332031 1120.414062 185.863281 C 1120.320312 185.390625 1120.273438 184.917969 1120.273438 184.4375 C 1120.273438 183.960938 1120.320312 183.484375 1120.414062 183.015625 C 1120.507812 182.546875 1120.644531 182.089844 1120.828125 181.648438 C 1121.011719 181.203125 1121.234375 180.785156 1121.5 180.386719 C 1121.769531 179.988281 1122.070312 179.617188 1122.410156 179.28125 C 1122.746094 178.941406 1123.117188 178.640625 1123.511719 178.371094 C 1123.910156 178.105469 1124.332031 177.882812 1124.773438 177.699219 C 1125.214844 177.515625 1125.671875 177.378906 1126.140625 177.285156 C 1126.613281 177.191406 1127.085938 177.144531 1127.566406 177.144531 C 1128.042969 177.144531 1128.519531 177.191406 1128.988281 177.285156 C 1129.457031 177.378906 1129.914062 177.515625 1130.355469 177.699219 C 1130.796875 177.882812 1131.21875 178.105469 1131.617188 178.371094 C 1132.015625 178.640625 1132.382812 178.941406 1132.722656 179.28125 C 1133.058594 179.617188 1133.363281 179.988281 1133.628906 180.386719 C 1133.894531 180.785156 1134.117188 181.203125 1134.300781 181.648438 C 1134.484375 182.089844 1134.625 182.546875 1134.71875 183.015625 C 1134.808594 183.484375 1134.855469 183.960938 1134.855469 184.4375 C 1134.855469 184.917969 1134.808594 185.390625 1134.71875 185.863281 C 1134.625 186.332031 1134.484375 186.789062 1134.300781 187.230469 C 1134.117188 187.671875 1133.894531 188.09375 1133.628906 188.492188 C 1133.363281 188.890625 1133.058594 189.257812 1132.722656 189.597656 C 1132.382812 189.933594 1132.015625 190.238281 1131.617188 190.503906 C 1131.21875 190.769531 1130.796875 190.996094 1130.355469 191.179688 C 1129.914062 191.359375 1129.457031 191.5 1128.988281 191.59375 C 1128.519531 191.6875 1128.042969 191.734375 1127.566406 191.734375 Z M 1127.566406 191.734375 "/><path style=" stroke:none;fill-rule:nonzero;fill:#fcfcfd;fill-opacity:1;" d="M 1342.816406 312.683594 C 1342.457031 312.683594 1342.105469 312.648438 1341.753906 312.578125 C 1341.402344 312.507812 1341.0625 312.40625 1340.734375 312.269531 C 1340.402344 312.132812 1340.089844 311.964844 1339.792969 311.765625 C 1339.496094 311.566406 1339.21875 311.339844 1338.96875 311.089844 C 1338.714844 310.835938 1338.488281 310.5625 1338.289062 310.265625 C 1338.09375 309.96875 1337.925781 309.652344 1337.789062 309.324219 C 1337.652344 308.992188 1337.546875 308.652344 1337.480469 308.300781 C 1337.410156 307.953125 1337.375 307.597656 1337.375 307.242188 C 1337.375 306.882812 1337.410156 306.527344 1337.480469 306.179688 C 1337.546875 305.828125 1337.652344 305.488281 1337.789062 305.15625 C 1337.925781 304.828125 1338.09375 304.515625 1338.289062 304.214844 C 1338.488281 303.917969 1338.714844 303.644531 1338.96875 303.390625 C 1339.21875 303.140625 1339.496094 302.914062 1339.792969 302.714844 C 1340.089844 302.515625 1340.402344 302.347656 1340.734375 302.210938 C 1341.0625 302.074219 1341.402344 301.972656 1341.753906 301.902344 C 1342.105469 301.832031 1342.457031 301.796875 1342.816406 301.796875 C 1343.171875 301.796875 1343.527344 301.832031 1343.875 301.902344 C 1344.226562 301.972656 1344.566406 302.074219 1344.898438 302.210938 C 1345.226562 302.347656 1345.539062 302.515625 1345.835938 302.714844 C 1346.132812 302.914062 1346.410156 303.140625 1346.660156 303.390625 C 1346.914062 303.644531 1347.140625 303.917969 1347.339844 304.214844 C 1347.535156 304.515625 1347.703125 304.828125 1347.839844 305.15625 C 1347.976562 305.488281 1348.082031 305.828125 1348.152344 306.179688 C 1348.21875 306.527344 1348.253906 306.882812 1348.253906 307.242188 C 1348.253906 307.597656 1348.21875 307.953125 1348.152344 308.300781 C 1348.082031 308.652344 1347.976562 308.992188 1347.839844 309.324219 C 1347.703125 309.652344 1347.535156 309.96875 1347.339844 310.265625 C 1347.140625 310.5625 1346.914062 310.835938 1346.660156 311.089844 C 1346.410156 311.339844 1346.132812 311.566406 1345.835938 311.765625 C 1345.539062 311.964844 1345.226562 312.132812 1344.898438 312.269531 C 1344.566406 312.40625 1344.226562 312.507812 1343.875 312.578125 C 1343.527344 312.648438 1343.171875 312.683594 1342.816406 312.683594 Z M 1342.816406 312.683594 "/><path style=" stroke:none;fill-rule:nonzero;fill:#fcfcfd;fill-opacity:1;" d="M 1257.578125 644.679688 C 1257.222656 644.679688 1256.867188 644.644531 1256.515625 644.574219 C 1256.167969 644.503906 1255.824219 644.402344 1255.496094 644.265625 C 1255.164062 644.128906 1254.851562 643.960938 1254.554688 643.761719 C 1254.257812 643.5625 1253.984375 643.335938 1253.730469 643.085938 C 1253.476562 642.832031 1253.253906 642.558594 1253.054688 642.261719 C 1252.855469 641.960938 1252.6875 641.648438 1252.550781 641.320312 C 1252.414062 640.988281 1252.3125 640.648438 1252.242188 640.296875 C 1252.171875 639.949219 1252.136719 639.59375 1252.136719 639.238281 C 1252.136719 638.878906 1252.171875 638.523438 1252.242188 638.175781 C 1252.3125 637.824219 1252.414062 637.484375 1252.550781 637.152344 C 1252.6875 636.824219 1252.855469 636.507812 1253.054688 636.210938 C 1253.253906 635.914062 1253.476562 635.640625 1253.730469 635.386719 C 1253.984375 635.136719 1254.257812 634.910156 1254.554688 634.710938 C 1254.851562 634.511719 1255.164062 634.34375 1255.496094 634.207031 C 1255.824219 634.070312 1256.167969 633.96875 1256.515625 633.898438 C 1256.867188 633.828125 1257.222656 633.792969 1257.578125 633.792969 C 1257.933594 633.792969 1258.289062 633.828125 1258.640625 633.898438 C 1258.988281 633.96875 1259.328125 634.070312 1259.660156 634.207031 C 1259.988281 634.34375 1260.304688 634.511719 1260.601562 634.710938 C 1260.898438 634.910156 1261.171875 635.136719 1261.425781 635.386719 C 1261.679688 635.640625 1261.902344 635.914062 1262.101562 636.210938 C 1262.300781 636.511719 1262.46875 636.824219 1262.605469 637.152344 C 1262.742188 637.484375 1262.84375 637.824219 1262.914062 638.175781 C 1262.984375 638.523438 1263.019531 638.878906 1263.019531 639.238281 C 1263.019531 639.59375 1262.984375 639.949219 1262.914062 640.296875 C 1262.84375 640.648438 1262.742188 640.988281 1262.605469 641.320312 C 1262.46875 641.648438 1262.300781 641.960938 1262.101562 642.261719 C 1261.902344 642.558594 1261.679688 642.832031 1261.425781 643.085938 C 1261.171875 643.335938 1260.898438 643.5625 1260.601562 643.761719 C 1260.304688 643.960938 1259.988281 644.128906 1259.660156 644.265625 C 1259.328125 644.402344 1258.988281 644.503906 1258.640625 644.574219 C 1258.289062 644.644531 1257.933594 644.679688 1257.578125 644.679688 Z M 1257.578125 644.679688 "/><g clip-rule="nonzero" clip-path="url(#90e6d914ab)"><path style=" stroke:none;fill-rule:nonzero;fill:#fcfcfd;fill-opacity:1;" d="M 1072.597656 606.582031 C 1072.238281 606.582031 1071.886719 606.546875 1071.535156 606.476562 C 1071.183594 606.40625 1070.84375 606.304688 1070.515625 606.167969 C 1070.183594 606.03125 1069.871094 605.863281 1069.574219 605.664062 C 1069.277344 605.464844 1069.003906 605.238281 1068.75 604.988281 C 1068.496094 604.734375 1068.269531 604.460938 1068.074219 604.164062 C 1067.875 603.863281 1067.707031 603.550781 1067.570312 603.222656 C 1067.433594 602.890625 1067.328125 602.550781 1067.261719 602.199219 C 1067.191406 601.851562 1067.15625 601.496094 1067.15625 601.136719 C 1067.15625 600.78125 1067.191406 600.425781 1067.261719 600.078125 C 1067.328125 599.726562 1067.433594 599.386719 1067.570312 599.054688 C 1067.707031 598.726562 1067.875 598.410156 1068.074219 598.113281 C 1068.269531 597.816406 1068.496094 597.542969 1068.75 597.289062 C 1069.003906 597.039062 1069.277344 596.8125 1069.574219 596.613281 C 1069.871094 596.414062 1070.183594 596.246094 1070.515625 596.109375 C 1070.84375 595.972656 1071.183594 595.871094 1071.535156 595.800781 C 1071.886719 595.730469 1072.238281 595.695312 1072.597656 595.695312 C 1072.953125 595.695312 1073.308594 595.730469 1073.65625 595.800781 C 1074.007812 595.871094 1074.347656 595.972656 1074.679688 596.109375 C 1075.007812 596.246094 1075.320312 596.414062 1075.617188 596.613281 C 1075.917969 596.8125 1076.191406 597.039062 1076.445312 597.289062 C 1076.695312 597.542969 1076.921875 597.816406 1077.121094 598.113281 C 1077.320312 598.410156 1077.484375 598.726562 1077.621094 599.054688 C 1077.757812 599.386719 1077.863281 599.726562 1077.933594 600.078125 C 1078.003906 600.425781 1078.035156 600.78125 1078.035156 601.136719 C 1078.035156 601.496094 1078.003906 601.851562 1077.933594 602.199219 C 1077.863281 602.550781 1077.757812 602.890625 1077.621094 603.222656 C 1077.484375 603.550781 1077.320312 603.863281 1077.121094 604.164062 C 1076.921875 604.460938 1076.695312 604.734375 1076.445312 604.988281 C 1076.191406 605.238281 1075.917969 605.464844 1075.617188 605.664062 C 1075.320312 605.863281 1075.007812 606.03125 1074.679688 606.167969 C 1074.347656 606.304688 1074.007812 606.40625 1073.65625 606.476562 C 1073.308594 606.546875 1072.953125 606.582031 1072.597656 606.582031 Z M 1072.597656 606.582031 "/></g><path style=" stroke:none;fill-rule:nonzero;fill:#fcfcfd;fill-opacity:1;" d="M 1395.40625 247.371094 C 1395.050781 247.371094 1394.695312 247.335938 1394.347656 247.269531 C 1393.996094 247.199219 1393.65625 247.09375 1393.324219 246.957031 C 1392.996094 246.820312 1392.683594 246.652344 1392.386719 246.453125 C 1392.085938 246.257812 1391.8125 246.03125 1391.558594 245.777344 C 1391.308594 245.527344 1391.082031 245.25 1390.882812 244.953125 C 1390.683594 244.65625 1390.519531 244.34375 1390.382812 244.011719 C 1390.246094 243.683594 1390.140625 243.34375 1390.070312 242.992188 C 1390 242.640625 1389.964844 242.289062 1389.964844 241.929688 C 1389.964844 241.574219 1390 241.21875 1390.070312 240.867188 C 1390.140625 240.515625 1390.246094 240.175781 1390.382812 239.847656 C 1390.519531 239.515625 1390.683594 239.203125 1390.882812 238.90625 C 1391.082031 238.609375 1391.308594 238.332031 1391.558594 238.082031 C 1391.8125 237.828125 1392.085938 237.601562 1392.382812 237.40625 C 1392.683594 237.207031 1392.996094 237.039062 1393.324219 236.902344 C 1393.65625 236.765625 1393.996094 236.660156 1394.347656 236.589844 C 1394.695312 236.523438 1395.050781 236.488281 1395.40625 236.488281 C 1395.765625 236.488281 1396.117188 236.523438 1396.46875 236.589844 C 1396.820312 236.660156 1397.160156 236.765625 1397.488281 236.902344 C 1397.820312 237.039062 1398.132812 237.207031 1398.429688 237.40625 C 1398.726562 237.601562 1399 237.828125 1399.253906 238.082031 C 1399.507812 238.332031 1399.734375 238.609375 1399.929688 238.90625 C 1400.128906 239.203125 1400.296875 239.515625 1400.433594 239.847656 C 1400.570312 240.175781 1400.671875 240.515625 1400.742188 240.867188 C 1400.8125 241.21875 1400.847656 241.574219 1400.847656 241.929688 C 1400.847656 242.289062 1400.8125 242.640625 1400.742188 242.992188 C 1400.671875 243.34375 1400.570312 243.683594 1400.433594 244.011719 C 1400.296875 244.34375 1400.128906 244.65625 1399.929688 244.953125 C 1399.734375 245.25 1399.507812 245.527344 1399.253906 245.777344 C 1399 246.03125 1398.726562 246.257812 1398.429688 246.453125 C 1398.132812 246.652344 1397.820312 246.820312 1397.488281 246.957031 C 1397.160156 247.09375 1396.820312 247.199219 1396.46875 247.269531 C 1396.117188 247.335938 1395.765625 247.371094 1395.40625 247.371094 Z M 1395.40625 247.371094 "/><path style=" stroke:none;fill-rule:nonzero;fill:#fcfcfd;fill-opacity:1;" d="M 1090.128906 650.121094 C 1089.769531 650.121094 1089.417969 650.085938 1089.066406 650.015625 C 1088.714844 649.945312 1088.375 649.84375 1088.046875 649.707031 C 1087.714844 649.570312 1087.402344 649.402344 1087.105469 649.203125 C 1086.808594 649.003906 1086.535156 648.78125 1086.28125 648.527344 C 1086.027344 648.273438 1085.800781 648 1085.605469 647.703125 C 1085.40625 647.40625 1085.238281 647.089844 1085.101562 646.761719 C 1084.964844 646.429688 1084.863281 646.089844 1084.792969 645.742188 C 1084.722656 645.390625 1084.6875 645.035156 1084.6875 644.679688 C 1084.6875 644.320312 1084.722656 643.96875 1084.792969 643.617188 C 1084.863281 643.265625 1084.964844 642.925781 1085.101562 642.597656 C 1085.238281 642.265625 1085.40625 641.953125 1085.605469 641.65625 C 1085.800781 641.359375 1086.027344 641.082031 1086.28125 640.832031 C 1086.535156 640.578125 1086.808594 640.351562 1087.105469 640.152344 C 1087.402344 639.953125 1087.714844 639.789062 1088.046875 639.652344 C 1088.375 639.515625 1088.714844 639.410156 1089.066406 639.339844 C 1089.417969 639.269531 1089.769531 639.234375 1090.128906 639.238281 C 1090.484375 639.234375 1090.839844 639.269531 1091.1875 639.339844 C 1091.539062 639.410156 1091.878906 639.515625 1092.210938 639.652344 C 1092.539062 639.789062 1092.855469 639.953125 1093.152344 640.152344 C 1093.449219 640.351562 1093.722656 640.578125 1093.976562 640.832031 C 1094.226562 641.082031 1094.453125 641.359375 1094.652344 641.65625 C 1094.851562 641.953125 1095.019531 642.265625 1095.15625 642.597656 C 1095.292969 642.925781 1095.394531 643.265625 1095.464844 643.617188 C 1095.535156 643.96875 1095.570312 644.320312 1095.570312 644.679688 C 1095.570312 645.035156 1095.535156 645.390625 1095.464844 645.742188 C 1095.394531 646.089844 1095.292969 646.429688 1095.15625 646.761719 C 1095.019531 647.089844 1094.851562 647.40625 1094.652344 647.703125 C 1094.453125 648 1094.226562 648.273438 1093.976562 648.527344 C 1093.722656 648.78125 1093.449219 649.003906 1093.152344 649.203125 C 1092.855469 649.402344 1092.539062 649.570312 1092.210938 649.707031 C 1091.878906 649.84375 1091.539062 649.945312 1091.1875 650.015625 C 1090.839844 650.085938 1090.484375 650.121094 1090.128906 650.121094 Z M 1090.128906 650.121094 "/><path style=" stroke:none;fill-rule:nonzero;fill:#fcfcfd;fill-opacity:1;" d="M 1219.492188 742.644531 C 1219.011719 742.644531 1218.550781 742.554688 1218.105469 742.367188 C 1217.660156 742.183594 1217.269531 741.921875 1216.929688 741.582031 C 1216.589844 741.242188 1216.328125 740.847656 1216.144531 740.40625 C 1215.957031 739.960938 1215.867188 739.496094 1215.867188 739.015625 C 1215.867188 738.535156 1215.957031 738.074219 1216.144531 737.628906 C 1216.328125 737.183594 1216.589844 736.792969 1216.929688 736.449219 C 1217.269531 736.109375 1217.660156 735.847656 1218.105469 735.664062 C 1218.550781 735.480469 1219.011719 735.386719 1219.492188 735.386719 C 1219.972656 735.386719 1220.4375 735.480469 1220.882812 735.664062 C 1221.324219 735.847656 1221.71875 736.109375 1222.058594 736.449219 C 1222.398438 736.792969 1222.660156 737.183594 1222.84375 737.628906 C 1223.027344 738.074219 1223.121094 738.535156 1223.121094 739.015625 C 1223.121094 739.496094 1223.027344 739.960938 1222.84375 740.40625 C 1222.660156 740.847656 1222.398438 741.242188 1222.058594 741.582031 C 1221.71875 741.921875 1221.324219 742.183594 1220.882812 742.367188 C 1220.4375 742.554688 1219.972656 742.644531 1219.492188 742.644531 Z M 1219.492188 742.644531 "/><path style=" stroke:none;fill-rule:nonzero;fill:#fcfcfd;fill-opacity:1;" d="M 1256.027344 477.347656 C 1255.640625 477.347656 1255.265625 477.273438 1254.90625 477.125 C 1254.546875 476.976562 1254.226562 476.761719 1253.953125 476.488281 C 1253.679688 476.210938 1253.464844 475.894531 1253.316406 475.535156 C 1253.167969 475.175781 1253.09375 474.800781 1253.09375 474.410156 C 1253.09375 474.019531 1253.167969 473.644531 1253.316406 473.285156 C 1253.464844 472.925781 1253.679688 472.609375 1253.953125 472.332031 C 1254.226562 472.058594 1254.546875 471.847656 1254.90625 471.695312 C 1255.265625 471.546875 1255.640625 471.472656 1256.027344 471.472656 C 1256.417969 471.472656 1256.792969 471.546875 1257.152344 471.695312 C 1257.511719 471.847656 1257.832031 472.058594 1258.105469 472.332031 C 1258.378906 472.609375 1258.59375 472.925781 1258.742188 473.285156 C 1258.890625 473.644531 1258.964844 474.019531 1258.964844 474.410156 C 1258.964844 474.800781 1258.890625 475.175781 1258.742188 475.535156 C 1258.59375 475.894531 1258.378906 476.210938 1258.105469 476.488281 C 1257.832031 476.761719 1257.511719 476.976562 1257.152344 477.125 C 1256.792969 477.273438 1256.417969 477.347656 1256.027344 477.347656 Z M 1256.027344 477.347656 "/><path style=" stroke:none;fill-rule:nonzero;fill:#fcfcfd;fill-opacity:1;" d="M 1429.863281 113.121094 C 1429.382812 113.121094 1428.921875 113.03125 1428.476562 112.847656 C 1428.03125 112.664062 1427.640625 112.398438 1427.300781 112.058594 C 1426.960938 111.71875 1426.699219 111.328125 1426.515625 110.882812 C 1426.328125 110.4375 1426.238281 109.976562 1426.238281 109.496094 C 1426.238281 109.011719 1426.328125 108.550781 1426.515625 108.105469 C 1426.699219 107.660156 1426.960938 107.269531 1427.300781 106.929688 C 1427.640625 106.589844 1428.03125 106.324219 1428.476562 106.140625 C 1428.921875 105.957031 1429.382812 105.867188 1429.863281 105.867188 C 1430.347656 105.867188 1430.808594 105.957031 1431.253906 106.140625 C 1431.695312 106.324219 1432.089844 106.589844 1432.429688 106.929688 C 1432.769531 107.269531 1433.03125 107.660156 1433.214844 108.105469 C 1433.398438 108.550781 1433.492188 109.011719 1433.492188 109.496094 C 1433.492188 109.976562 1433.398438 110.4375 1433.214844 110.882812 C 1433.03125 111.328125 1432.769531 111.71875 1432.429688 112.058594 C 1432.089844 112.398438 1431.695312 112.664062 1431.253906 112.847656 C 1430.808594 113.03125 1430.347656 113.121094 1429.863281 113.121094 Z M 1429.863281 113.121094 "/><path style=" stroke:none;fill-rule:nonzero;fill:#fcfcfd;fill-opacity:1;" d="M 1395.40625 11.527344 C 1395.050781 11.527344 1394.695312 11.492188 1394.347656 11.421875 C 1393.996094 11.355469 1393.65625 11.25 1393.324219 11.113281 C 1392.996094 10.976562 1392.683594 10.808594 1392.386719 10.609375 C 1392.085938 10.414062 1391.8125 10.1875 1391.558594 9.933594 C 1391.308594 9.679688 1391.082031 9.40625 1390.882812 9.109375 C 1390.683594 8.8125 1390.519531 8.5 1390.382812 8.167969 C 1390.246094 7.839844 1390.140625 7.496094 1390.070312 7.148438 C 1390 6.796875 1389.964844 6.441406 1389.964844 6.085938 C 1389.964844 5.726562 1390 5.375 1390.070312 5.023438 C 1390.140625 4.671875 1390.246094 4.332031 1390.382812 4.003906 C 1390.519531 3.671875 1390.683594 3.359375 1390.882812 3.0625 C 1391.082031 2.765625 1391.308594 2.488281 1391.558594 2.238281 C 1391.8125 1.984375 1392.085938 1.757812 1392.382812 1.558594 C 1392.683594 1.363281 1392.996094 1.195312 1393.324219 1.058594 C 1393.65625 0.921875 1393.996094 0.816406 1394.347656 0.746094 C 1394.695312 0.679688 1395.050781 0.644531 1395.40625 0.644531 C 1395.765625 0.644531 1396.117188 0.679688 1396.46875 0.746094 C 1396.820312 0.816406 1397.160156 0.921875 1397.488281 1.058594 C 1397.820312 1.195312 1398.132812 1.363281 1398.429688 1.558594 C 1398.726562 1.757812 1399 1.984375 1399.253906 2.238281 C 1399.507812 2.488281 1399.734375 2.765625 1399.929688 3.0625 C 1400.128906 3.359375 1400.296875 3.671875 1400.433594 4.003906 C 1400.570312 4.332031 1400.671875 4.671875 1400.742188 5.023438 C 1400.8125 5.375 1400.847656 5.726562 1400.847656 6.085938 C 1400.847656 6.441406 1400.8125 6.796875 1400.742188 7.148438 C 1400.671875 7.496094 1400.570312 7.839844 1400.433594 8.167969 C 1400.296875 8.5 1400.128906 8.8125 1399.929688 9.109375 C 1399.734375 9.40625 1399.507812 9.679688 1399.253906 9.933594 C 1399 10.1875 1398.726562 10.414062 1398.429688 10.609375 C 1398.132812 10.808594 1397.820312 10.976562 1397.488281 11.113281 C 1397.160156 11.25 1396.820312 11.355469 1396.46875 11.421875 C 1396.117188 11.492188 1395.765625 11.527344 1395.40625 11.527344 Z M 1395.40625 11.527344 "/><path style=" stroke:none;fill-rule:nonzero;fill:#fcfcfd;fill-opacity:1;" d="M 1335.558594 525.097656 L 1328.214844 526.164062 C 1327.875 526.214844 1327.566406 526.367188 1327.324219 526.613281 C 1327.082031 526.859375 1326.921875 527.167969 1326.875 527.503906 L 1325.8125 534.851562 L 1324.746094 527.5 C 1324.695312 527.164062 1324.542969 526.851562 1324.296875 526.609375 C 1324.058594 526.371094 1323.742188 526.207031 1323.40625 526.160156 L 1316.066406 525.097656 L 1323.410156 524.03125 C 1323.75 523.980469 1324.058594 523.828125 1324.300781 523.582031 C 1324.542969 523.339844 1324.703125 523.027344 1324.75 522.691406 L 1325.8125 515.347656 L 1326.878906 522.695312 C 1326.929688 523.035156 1327.082031 523.34375 1327.328125 523.585938 C 1327.566406 523.828125 1327.882812 523.988281 1328.21875 524.035156 Z M 1335.558594 525.097656 "/></g></svg>