<svg xmlns="http://www.w3.org/2000/svg" xmlns:xlink="http://www.w3.org/1999/xlink" width="1920" zoomAndPan="magnify" viewBox="0 0 1440 809.999993" height="1080" preserveAspectRatio="xMidYMid meet" version="1.2"><defs><clipPath id="b0d612b0bc"><path d="M 1106.855469 0 L 1440 0 L 1440 299.300781 L 1106.855469 299.300781 Z M 1106.855469 0 "/></clipPath><clipPath id="36149650bb"><path d="M 0 496.046875 L 290.820312 496.046875 L 290.820312 810 L 0 810 Z M 0 496.046875 "/></clipPath><clipPath id="256466ca37"><path d="M 1106.855469 471.871094 L 1440 471.871094 L 1440 804.871094 L 1106.855469 804.871094 Z M 1106.855469 471.871094 "/></clipPath><clipPath id="59266aba63"><path d="M 0 0 L 290.820312 0 L 290.820312 281.679688 L 0 281.679688 Z M 0 0 "/></clipPath><clipPath id="79033ad68f"><path d="M 102 154 L 110 154 L 110 160.515625 L 102 160.515625 Z M 102 154 "/></clipPath><clipPath id="dc878165c4"><path d="M 1403 227 L 1412 227 L 1412 235.445312 L 1403 235.445312 Z M 1403 227 "/></clipPath><clipPath id="826e9525a2"><path d="M 214 597.609375 L 219 597.609375 L 219 602 L 214 602 Z M 214 597.609375 "/></clipPath></defs><g id="351486211e"><rect x="0" width="1440" y="0" height="809.999993" style="fill:#ffffff;fill-opacity:1;stroke:none;"/><rect x="0" width="1440" y="0" height="809.999993" style="fill:#ffffff;fill-opacity:1;stroke:none;"/><g clip-rule="nonzero" clip-path="url(#b0d612b0bc)"><path style=" stroke:none;fill-rule:nonzero;fill:#3e4466;fill-opacity:1;" d="M 1472.585938 -24.527344 L 1106.855469 -24.527344 C 1112.617188 57.738281 1173.398438 39.921875 1210.074219 63.5 C 1247.277344 87.078125 1227.367188 143.667969 1274.523438 180.347656 C 1321.15625 217.546875 1354.691406 207.59375 1381.9375 217.546875 C 1409.183594 227.503906 1414.425781 264.707031 1432.238281 283.570312 C 1447.433594 299.289062 1472.585938 299.289062 1472.585938 299.289062 Z M 1472.585938 -24.527344 "/></g><g clip-rule="nonzero" clip-path="url(#36149650bb)"><path style=" stroke:none;fill-rule:nonzero;fill:#3e4466;fill-opacity:1;" d="M -74.910156 819.871094 L 290.820312 819.871094 C 285.054688 737.605469 224.277344 755.421875 187.597656 731.84375 C 150.394531 708.265625 170.308594 651.675781 123.148438 615 C 76.515625 577.796875 42.984375 587.753906 15.734375 577.796875 C -11.511719 567.839844 -16.75 530.640625 -34.566406 511.777344 C -49.761719 496.058594 -74.910156 496.058594 -74.910156 496.058594 Z M -74.910156 819.871094 "/></g><g clip-rule="nonzero" clip-path="url(#256466ca37)"><path style=" stroke:none;fill-rule:nonzero;fill:#3e4466;fill-opacity:1;" d="M 1482.605469 804.566406 L 1106.855469 804.566406 C 1112.777344 720.050781 1175.222656 738.355469 1212.902344 714.128906 C 1251.125 689.90625 1230.667969 631.765625 1279.117188 594.082031 C 1327.027344 555.863281 1361.480469 566.089844 1389.472656 555.863281 C 1417.46875 545.632812 1422.851562 507.414062 1441.152344 488.035156 C 1456.765625 471.882812 1482.605469 471.882812 1482.605469 471.882812 Z M 1482.605469 804.566406 "/></g><g clip-rule="nonzero" clip-path="url(#59266aba63)"><path style=" stroke:none;fill-rule:nonzero;fill:#3e4466;fill-opacity:1;" d="M -74.910156 -42.144531 L 290.820312 -42.144531 C 285.054688 40.121094 224.277344 22.304688 187.597656 45.882812 C 150.394531 69.460938 170.308594 126.050781 123.148438 162.726562 C 76.515625 199.929688 42.984375 189.976562 15.734375 199.929688 C -11.511719 209.886719 -16.75 247.085938 -34.566406 265.949219 C -49.761719 281.667969 -74.910156 281.667969 -74.910156 281.667969 Z M -74.910156 -42.144531 "/></g><path style=" stroke:none;fill-rule:nonzero;fill:#fcfcfd;fill-opacity:1;" d="M 231.59375 85.988281 L 232.417969 91.664062 C 232.457031 91.925781 232.574219 92.164062 232.761719 92.351562 C 232.953125 92.539062 233.191406 92.664062 233.449219 92.699219 L 239.121094 93.519531 L 233.445312 94.34375 C 233.1875 94.382812 232.949219 94.5 232.757812 94.691406 C 232.574219 94.875 232.449219 95.117188 232.414062 95.378906 L 231.59375 101.050781 L 230.769531 95.375 C 230.730469 95.113281 230.613281 94.875 230.421875 94.6875 C 230.234375 94.5 229.996094 94.375 229.734375 94.339844 L 224.066406 93.519531 L 229.738281 92.695312 C 230 92.65625 230.238281 92.539062 230.425781 92.347656 C 230.613281 92.164062 230.738281 91.921875 230.773438 91.660156 Z M 231.59375 85.988281 "/><path style=" stroke:none;fill-rule:nonzero;fill:#fcfcfd;fill-opacity:1;" d="M 124.433594 74.761719 L 125.703125 83.511719 C 125.765625 83.914062 125.945312 84.28125 126.238281 84.574219 C 126.527344 84.859375 126.898438 85.054688 127.296875 85.109375 L 136.042969 86.371094 L 127.292969 87.644531 C 126.890625 87.703125 126.523438 87.886719 126.230469 88.179688 C 125.945312 88.464844 125.753906 88.839844 125.699219 89.238281 L 124.433594 97.988281 L 123.164062 89.234375 C 123.101562 88.832031 122.921875 88.464844 122.628906 88.171875 C 122.335938 87.886719 121.96875 87.695312 121.566406 87.640625 L 112.824219 86.375 L 121.574219 85.101562 C 121.972656 85.042969 122.34375 84.859375 122.632812 84.570312 C 122.921875 84.28125 123.113281 83.910156 123.167969 83.507812 Z M 124.433594 74.761719 "/><path style=" stroke:none;fill-rule:nonzero;fill:#fcfcfd;fill-opacity:1;" d="M 18.292969 92.117188 L 19.675781 101.636719 C 19.742188 102.074219 19.9375 102.476562 20.257812 102.792969 C 20.574219 103.101562 20.972656 103.3125 21.410156 103.371094 L 30.921875 104.75 L 21.40625 106.132812 C 20.96875 106.195312 20.566406 106.394531 20.25 106.710938 C 19.9375 107.023438 19.730469 107.429688 19.667969 107.867188 L 18.292969 117.382812 L 16.914062 107.859375 C 16.847656 107.425781 16.648438 107.023438 16.332031 106.707031 C 16.015625 106.394531 15.613281 106.1875 15.175781 106.125 L 5.664062 104.75 L 15.183594 103.367188 C 15.621094 103.300781 16.019531 103.101562 16.335938 102.785156 C 16.648438 102.472656 16.859375 102.066406 16.917969 101.632812 Z M 18.292969 92.117188 "/><path style=" stroke:none;fill-rule:nonzero;fill:#fcfcfd;fill-opacity:1;" d="M 60.050781 50.257812 C 60.050781 50.527344 59.996094 50.789062 59.894531 51.039062 C 59.789062 51.289062 59.640625 51.511719 59.449219 51.703125 C 59.257812 51.894531 59.039062 52.042969 58.789062 52.144531 C 58.539062 52.25 58.277344 52.300781 58.007812 52.300781 C 57.738281 52.300781 57.476562 52.25 57.226562 52.144531 C 56.976562 52.042969 56.753906 51.894531 56.5625 51.703125 C 56.371094 51.511719 56.226562 51.289062 56.121094 51.039062 C 56.019531 50.789062 55.964844 50.527344 55.964844 50.257812 C 55.964844 49.988281 56.019531 49.726562 56.121094 49.476562 C 56.226562 49.226562 56.371094 49.007812 56.5625 48.816406 C 56.753906 48.625 56.976562 48.476562 57.226562 48.371094 C 57.476562 48.269531 57.738281 48.214844 58.007812 48.214844 C 58.277344 48.214844 58.539062 48.269531 58.789062 48.371094 C 59.039062 48.476562 59.257812 48.625 59.449219 48.816406 C 59.640625 49.007812 59.789062 49.226562 59.894531 49.476562 C 59.996094 49.726562 60.050781 49.988281 60.050781 50.257812 Z M 60.050781 50.257812 "/><path style=" stroke:none;fill-rule:nonzero;fill:#fcfcfd;fill-opacity:1;" d="M 253.957031 24.734375 C 253.957031 25.140625 253.878906 25.53125 253.726562 25.90625 C 253.570312 26.28125 253.347656 26.613281 253.0625 26.902344 C 252.773438 27.1875 252.441406 27.410156 252.066406 27.566406 C 251.691406 27.722656 251.300781 27.796875 250.898438 27.796875 C 250.492188 27.796875 250.101562 27.722656 249.726562 27.566406 C 249.351562 27.410156 249.019531 27.1875 248.730469 26.902344 C 248.445312 26.613281 248.222656 26.28125 248.066406 25.90625 C 247.914062 25.53125 247.835938 25.140625 247.835938 24.734375 C 247.835938 24.328125 247.914062 23.9375 248.066406 23.5625 C 248.222656 23.1875 248.445312 22.855469 248.730469 22.570312 C 249.019531 22.28125 249.351562 22.0625 249.726562 21.90625 C 250.101562 21.75 250.492188 21.671875 250.898438 21.671875 C 251.300781 21.671875 251.691406 21.75 252.066406 21.90625 C 252.441406 22.0625 252.773438 22.28125 253.0625 22.570312 C 253.347656 22.855469 253.570312 23.1875 253.726562 23.5625 C 253.878906 23.9375 253.957031 24.328125 253.957031 24.734375 Z M 253.957031 24.734375 "/><path style=" stroke:none;fill-rule:nonzero;fill:#fcfcfd;fill-opacity:1;" d="M 130.46875 53.320312 C 130.46875 53.726562 130.390625 54.117188 130.234375 54.492188 C 130.082031 54.867188 129.859375 55.199219 129.570312 55.488281 C 129.285156 55.773438 128.953125 55.996094 128.578125 56.152344 C 128.203125 56.304688 127.8125 56.382812 127.40625 56.382812 C 127 56.382812 126.609375 56.304688 126.234375 56.152344 C 125.859375 55.996094 125.527344 55.773438 125.242188 55.488281 C 124.953125 55.199219 124.734375 54.867188 124.578125 54.492188 C 124.421875 54.117188 124.34375 53.726562 124.34375 53.320312 C 124.34375 52.914062 124.421875 52.523438 124.578125 52.148438 C 124.734375 51.773438 124.953125 51.441406 125.242188 51.15625 C 125.527344 50.867188 125.859375 50.648438 126.234375 50.492188 C 126.609375 50.335938 127 50.257812 127.40625 50.257812 C 127.8125 50.257812 128.203125 50.335938 128.578125 50.492188 C 128.953125 50.648438 129.285156 50.867188 129.570312 51.15625 C 129.859375 51.441406 130.082031 51.773438 130.234375 52.148438 C 130.390625 52.523438 130.46875 52.914062 130.46875 53.320312 Z M 130.46875 53.320312 "/><g clip-rule="nonzero" clip-path="url(#79033ad68f)"><path style=" stroke:none;fill-rule:nonzero;fill:#fcfcfd;fill-opacity:1;" d="M 109.035156 157.453125 C 109.035156 157.859375 108.957031 158.25 108.804688 158.625 C 108.648438 159 108.425781 159.332031 108.140625 159.617188 C 107.851562 159.90625 107.523438 160.128906 107.144531 160.28125 C 106.769531 160.4375 106.378906 160.515625 105.976562 160.515625 C 105.570312 160.515625 105.179688 160.4375 104.804688 160.28125 C 104.429688 160.128906 104.097656 159.90625 103.808594 159.617188 C 103.523438 159.332031 103.300781 159 103.144531 158.625 C 102.992188 158.25 102.914062 157.859375 102.914062 157.453125 C 102.914062 157.046875 102.992188 156.65625 103.144531 156.28125 C 103.300781 155.90625 103.523438 155.574219 103.808594 155.289062 C 104.097656 155 104.429688 154.777344 104.804688 154.625 C 105.179688 154.46875 105.570312 154.390625 105.976562 154.390625 C 106.378906 154.390625 106.769531 154.46875 107.144531 154.625 C 107.523438 154.777344 107.851562 155 108.140625 155.289062 C 108.425781 155.574219 108.648438 155.90625 108.804688 156.28125 C 108.957031 156.65625 109.035156 157.046875 109.035156 157.453125 Z M 109.035156 157.453125 "/></g><path style=" stroke:none;fill-rule:nonzero;fill:#fcfcfd;fill-opacity:1;" d="M 271.011719 37.003906 C 271.011719 37.273438 270.960938 37.535156 270.859375 37.785156 C 270.753906 38.035156 270.605469 38.257812 270.414062 38.449219 C 270.222656 38.640625 270.003906 38.785156 269.753906 38.890625 C 269.503906 38.992188 269.242188 39.046875 268.972656 39.046875 C 268.703125 39.046875 268.441406 38.992188 268.191406 38.890625 C 267.941406 38.785156 267.71875 38.640625 267.527344 38.449219 C 267.335938 38.257812 267.191406 38.035156 267.085938 37.785156 C 266.984375 37.535156 266.929688 37.273438 266.929688 37.003906 C 266.929688 36.734375 266.984375 36.472656 267.085938 36.222656 C 267.191406 35.972656 267.335938 35.75 267.527344 35.558594 C 267.71875 35.367188 267.941406 35.222656 268.191406 35.117188 C 268.441406 35.015625 268.703125 34.960938 268.972656 34.960938 C 269.242188 34.960938 269.503906 35.015625 269.753906 35.117188 C 270.003906 35.222656 270.222656 35.367188 270.414062 35.558594 C 270.605469 35.75 270.753906 35.972656 270.859375 36.222656 C 270.960938 36.472656 271.011719 36.734375 271.011719 37.003906 Z M 271.011719 37.003906 "/><path style=" stroke:none;fill-rule:nonzero;fill:#fcfcfd;fill-opacity:1;" d="M 282.441406 9.421875 C 282.441406 9.828125 282.363281 10.21875 282.207031 10.59375 C 282.054688 10.96875 281.832031 11.300781 281.542969 11.589844 C 281.257812 11.875 280.925781 12.097656 280.550781 12.25 C 280.175781 12.40625 279.785156 12.484375 279.378906 12.484375 C 278.972656 12.484375 278.582031 12.40625 278.207031 12.25 C 277.832031 12.097656 277.5 11.875 277.214844 11.589844 C 276.925781 11.300781 276.707031 10.96875 276.550781 10.59375 C 276.394531 10.21875 276.316406 9.828125 276.316406 9.421875 C 276.316406 9.015625 276.394531 8.625 276.550781 8.25 C 276.707031 7.875 276.925781 7.542969 277.214844 7.257812 C 277.5 6.96875 277.832031 6.75 278.207031 6.59375 C 278.582031 6.4375 278.972656 6.359375 279.378906 6.359375 C 279.785156 6.359375 280.175781 6.4375 280.550781 6.59375 C 280.925781 6.75 281.257812 6.96875 281.542969 7.257812 C 281.832031 7.542969 282.054688 7.875 282.207031 8.25 C 282.363281 8.625 282.441406 9.015625 282.441406 9.421875 Z M 282.441406 9.421875 "/><path style=" stroke:none;fill-rule:nonzero;fill:#fcfcfd;fill-opacity:1;" d="M 133.53125 147.585938 C 133.53125 147.992188 133.453125 148.382812 133.296875 148.757812 C 133.140625 149.132812 132.921875 149.460938 132.632812 149.75 C 132.347656 150.035156 132.015625 150.257812 131.640625 150.414062 C 131.265625 150.570312 130.875 150.648438 130.46875 150.648438 C 130.0625 150.648438 129.671875 150.570312 129.296875 150.414062 C 128.921875 150.257812 128.589844 150.035156 128.304688 149.75 C 128.015625 149.460938 127.796875 149.132812 127.640625 148.757812 C 127.484375 148.382812 127.40625 147.992188 127.40625 147.585938 C 127.40625 147.179688 127.484375 146.789062 127.640625 146.414062 C 127.796875 146.035156 128.015625 145.707031 128.304688 145.417969 C 128.589844 145.132812 128.921875 144.910156 129.296875 144.753906 C 129.671875 144.597656 130.0625 144.523438 130.46875 144.523438 C 130.875 144.523438 131.265625 144.597656 131.640625 144.753906 C 132.015625 144.910156 132.347656 145.132812 132.632812 145.417969 C 132.921875 145.707031 133.140625 146.035156 133.296875 146.414062 C 133.453125 146.789062 133.53125 147.179688 133.53125 147.585938 Z M 133.53125 147.585938 "/><path style=" stroke:none;fill-rule:nonzero;fill:#fcfcfd;fill-opacity:1;" d="M 185.578125 74.761719 C 185.578125 75.03125 185.527344 75.292969 185.425781 75.542969 C 185.320312 75.792969 185.171875 76.011719 184.980469 76.203125 C 184.789062 76.394531 184.570312 76.542969 184.320312 76.644531 C 184.070312 76.75 183.808594 76.800781 183.539062 76.800781 C 183.269531 76.800781 183.007812 76.75 182.757812 76.644531 C 182.507812 76.542969 182.285156 76.394531 182.09375 76.203125 C 181.902344 76.011719 181.757812 75.792969 181.652344 75.542969 C 181.550781 75.292969 181.496094 75.03125 181.496094 74.761719 C 181.496094 74.488281 181.550781 74.230469 181.652344 73.980469 C 181.757812 73.730469 181.902344 73.507812 182.09375 73.316406 C 182.285156 73.125 182.507812 72.976562 182.757812 72.875 C 183.007812 72.769531 183.269531 72.71875 183.539062 72.71875 C 183.808594 72.71875 184.070312 72.769531 184.320312 72.875 C 184.570312 72.976562 184.789062 73.125 184.980469 73.316406 C 185.171875 73.507812 185.320312 73.730469 185.425781 73.980469 C 185.527344 74.230469 185.578125 74.488281 185.578125 74.761719 Z M 185.578125 74.761719 "/><path style=" stroke:none;fill-rule:nonzero;fill:#fcfcfd;fill-opacity:1;" d="M 36.335938 54.191406 C 36.335938 54.414062 36.292969 54.621094 36.210938 54.824219 C 36.125 55.027344 36.007812 55.207031 35.851562 55.363281 C 35.695312 55.515625 35.519531 55.636719 35.316406 55.71875 C 35.113281 55.804688 34.902344 55.847656 34.683594 55.847656 C 34.464844 55.847656 34.253906 55.804688 34.050781 55.71875 C 33.847656 55.636719 33.671875 55.515625 33.515625 55.363281 C 33.359375 55.207031 33.242188 55.027344 33.15625 54.824219 C 33.074219 54.621094 33.03125 54.414062 33.03125 54.191406 C 33.03125 53.972656 33.074219 53.761719 33.15625 53.558594 C 33.242188 53.359375 33.359375 53.179688 33.515625 53.023438 C 33.671875 52.871094 33.847656 52.75 34.050781 52.664062 C 34.253906 52.582031 34.464844 52.539062 34.683594 52.539062 C 34.902344 52.539062 35.113281 52.582031 35.316406 52.664062 C 35.519531 52.75 35.695312 52.871094 35.851562 53.023438 C 36.007812 53.179688 36.125 53.359375 36.210938 53.558594 C 36.292969 53.761719 36.335938 53.972656 36.335938 54.191406 Z M 36.335938 54.191406 "/><path style=" stroke:none;fill-rule:nonzero;fill:#fcfcfd;fill-opacity:1;" d="M 63.199219 9.421875 L 63.796875 13.558594 C 63.828125 13.746094 63.914062 13.921875 64.050781 14.058594 C 64.1875 14.195312 64.363281 14.285156 64.550781 14.3125 L 68.683594 14.910156 L 64.550781 15.511719 C 64.359375 15.539062 64.183594 15.625 64.046875 15.761719 C 63.914062 15.898438 63.820312 16.074219 63.796875 16.261719 L 63.199219 20.398438 L 62.597656 16.261719 C 62.570312 16.070312 62.484375 15.898438 62.347656 15.761719 C 62.207031 15.625 62.035156 15.535156 61.84375 15.507812 L 57.710938 14.910156 L 61.847656 14.308594 C 62.035156 14.28125 62.210938 14.195312 62.347656 14.058594 C 62.484375 13.921875 62.574219 13.746094 62.601562 13.554688 Z M 63.199219 9.421875 "/><path style=" stroke:none;fill-rule:nonzero;fill:#fcfcfd;fill-opacity:1;" d="M 1084.835938 40.394531 L 1085.582031 45.542969 C 1085.617188 45.78125 1085.726562 45.996094 1085.898438 46.167969 C 1086.070312 46.335938 1086.285156 46.453125 1086.523438 46.484375 L 1091.675781 47.230469 L 1086.519531 47.976562 C 1086.28125 48.011719 1086.066406 48.117188 1085.894531 48.289062 C 1085.726562 48.457031 1085.613281 48.679688 1085.582031 48.914062 L 1084.835938 54.0625 L 1084.085938 48.914062 C 1084.050781 48.675781 1083.945312 48.460938 1083.773438 48.289062 C 1083.601562 48.121094 1083.382812 48.003906 1083.148438 47.972656 L 1077.992188 47.230469 L 1083.148438 46.480469 C 1083.386719 46.445312 1083.601562 46.339844 1083.773438 46.167969 C 1083.941406 46 1084.054688 45.777344 1084.085938 45.542969 Z M 1084.835938 40.394531 "/><path style=" stroke:none;fill-rule:nonzero;fill:#fcfcfd;fill-opacity:1;" d="M 1430.457031 128.621094 L 1432.039062 139.523438 C 1432.117188 140.023438 1432.34375 140.480469 1432.707031 140.84375 C 1433.070312 141.203125 1433.53125 141.441406 1434.03125 141.511719 L 1444.933594 143.085938 L 1434.023438 144.667969 C 1433.523438 144.746094 1433.0625 144.972656 1432.699219 145.335938 C 1432.34375 145.691406 1432.101562 146.15625 1432.035156 146.65625 L 1430.457031 157.554688 L 1428.875 146.652344 C 1428.796875 146.152344 1428.570312 145.691406 1428.207031 145.328125 C 1427.84375 144.972656 1427.386719 144.730469 1426.886719 144.664062 L 1415.984375 143.085938 L 1426.890625 141.503906 C 1427.390625 141.429688 1427.851562 141.203125 1428.214844 140.839844 C 1428.570312 140.484375 1428.8125 140.015625 1428.878906 139.515625 Z M 1430.457031 128.621094 "/><path style=" stroke:none;fill-rule:nonzero;fill:#fcfcfd;fill-opacity:1;" d="M 1298.125 150.238281 L 1299.847656 162.101562 C 1299.929688 162.644531 1300.175781 163.144531 1300.570312 163.539062 C 1300.96875 163.925781 1301.464844 164.1875 1302.011719 164.261719 L 1313.871094 165.976562 L 1302.003906 167.699219 C 1301.460938 167.78125 1300.960938 168.027344 1300.566406 168.421875 C 1300.175781 168.8125 1299.914062 169.316406 1299.839844 169.859375 L 1298.125 181.714844 L 1296.402344 169.855469 C 1296.320312 169.308594 1296.074219 168.808594 1295.679688 168.414062 C 1295.28125 168.027344 1294.785156 167.765625 1294.238281 167.691406 L 1282.378906 165.976562 L 1294.246094 164.253906 C 1294.792969 164.175781 1295.292969 163.925781 1295.6875 163.53125 C 1296.074219 163.144531 1296.335938 162.636719 1296.410156 162.09375 Z M 1298.125 150.238281 "/><path style=" stroke:none;fill-rule:nonzero;fill:#fcfcfd;fill-opacity:1;" d="M 1021.898438 146.574219 C 1021.898438 146.910156 1021.832031 147.234375 1021.703125 147.546875 C 1021.574219 147.859375 1021.390625 148.132812 1021.152344 148.371094 C 1020.914062 148.609375 1020.636719 148.792969 1020.328125 148.921875 C 1020.015625 149.050781 1019.691406 149.117188 1019.351562 149.117188 C 1019.015625 149.117188 1018.691406 149.050781 1018.378906 148.921875 C 1018.066406 148.792969 1017.792969 148.609375 1017.554688 148.371094 C 1017.316406 148.132812 1017.132812 147.859375 1017 147.546875 C 1016.871094 147.234375 1016.808594 146.910156 1016.808594 146.574219 C 1016.808594 146.234375 1016.871094 145.910156 1017 145.601562 C 1017.132812 145.289062 1017.316406 145.011719 1017.554688 144.773438 C 1017.792969 144.535156 1018.066406 144.351562 1018.378906 144.222656 C 1018.691406 144.09375 1019.015625 144.03125 1019.351562 144.03125 C 1019.691406 144.03125 1020.015625 144.09375 1020.328125 144.222656 C 1020.636719 144.351562 1020.914062 144.535156 1021.152344 144.773438 C 1021.390625 145.011719 1021.574219 145.289062 1021.703125 145.601562 C 1021.832031 145.910156 1021.898438 146.234375 1021.898438 146.574219 Z M 1021.898438 146.574219 "/><path style=" stroke:none;fill-rule:nonzero;fill:#fcfcfd;fill-opacity:1;" d="M 1231.847656 42.140625 C 1231.847656 42.480469 1231.785156 42.804688 1231.65625 43.113281 C 1231.527344 43.425781 1231.339844 43.703125 1231.101562 43.941406 C 1230.863281 44.179688 1230.589844 44.363281 1230.277344 44.492188 C 1229.964844 44.621094 1229.640625 44.683594 1229.304688 44.683594 C 1228.964844 44.683594 1228.640625 44.621094 1228.328125 44.492188 C 1228.019531 44.363281 1227.742188 44.179688 1227.503906 43.941406 C 1227.265625 43.703125 1227.082031 43.425781 1226.953125 43.113281 C 1226.824219 42.804688 1226.757812 42.480469 1226.757812 42.140625 C 1226.757812 41.804688 1226.824219 41.480469 1226.953125 41.167969 C 1227.082031 40.855469 1227.265625 40.582031 1227.503906 40.34375 C 1227.742188 40.105469 1228.019531 39.921875 1228.328125 39.792969 C 1228.640625 39.664062 1228.964844 39.597656 1229.304688 39.597656 C 1229.640625 39.597656 1229.964844 39.664062 1230.277344 39.792969 C 1230.589844 39.921875 1230.863281 40.105469 1231.101562 40.34375 C 1231.339844 40.582031 1231.527344 40.855469 1231.65625 41.167969 C 1231.785156 41.480469 1231.847656 41.804688 1231.847656 42.140625 Z M 1231.847656 42.140625 "/><path style=" stroke:none;fill-rule:nonzero;fill:#fcfcfd;fill-opacity:1;" d="M 1073.699219 181.714844 C 1073.699219 182.054688 1073.636719 182.378906 1073.503906 182.691406 C 1073.375 183 1073.191406 183.277344 1072.953125 183.515625 C 1072.714844 183.753906 1072.441406 183.9375 1072.128906 184.066406 C 1071.816406 184.195312 1071.492188 184.261719 1071.15625 184.261719 C 1070.816406 184.261719 1070.492188 184.195312 1070.179688 184.066406 C 1069.867188 183.9375 1069.59375 183.753906 1069.355469 183.515625 C 1069.117188 183.277344 1068.933594 183 1068.804688 182.691406 C 1068.675781 182.378906 1068.609375 182.054688 1068.609375 181.714844 C 1068.609375 181.378906 1068.675781 181.054688 1068.804688 180.742188 C 1068.933594 180.429688 1069.117188 180.15625 1069.355469 179.917969 C 1069.59375 179.679688 1069.867188 179.496094 1070.179688 179.367188 C 1070.492188 179.238281 1070.816406 179.171875 1071.15625 179.171875 C 1071.492188 179.171875 1071.816406 179.238281 1072.128906 179.367188 C 1072.441406 179.496094 1072.714844 179.679688 1072.953125 179.917969 C 1073.191406 180.15625 1073.375 180.429688 1073.503906 180.742188 C 1073.636719 181.054688 1073.699219 181.378906 1073.699219 181.714844 Z M 1073.699219 181.714844 "/><path style=" stroke:none;fill-rule:nonzero;fill:#fcfcfd;fill-opacity:1;" d="M 1341.277344 7.804688 C 1341.277344 8.140625 1341.210938 8.464844 1341.082031 8.777344 C 1340.953125 9.089844 1340.769531 9.363281 1340.53125 9.601562 C 1340.292969 9.839844 1340.019531 10.027344 1339.707031 10.15625 C 1339.394531 10.285156 1339.070312 10.347656 1338.730469 10.347656 C 1338.394531 10.347656 1338.070312 10.285156 1337.757812 10.15625 C 1337.445312 10.027344 1337.171875 9.839844 1336.933594 9.601562 C 1336.695312 9.363281 1336.511719 9.089844 1336.382812 8.777344 C 1336.253906 8.464844 1336.1875 8.140625 1336.1875 7.804688 C 1336.1875 7.46875 1336.253906 7.144531 1336.382812 6.832031 C 1336.511719 6.519531 1336.695312 6.246094 1336.933594 6.007812 C 1337.171875 5.769531 1337.445312 5.585938 1337.757812 5.453125 C 1338.070312 5.324219 1338.394531 5.261719 1338.730469 5.261719 C 1339.070312 5.261719 1339.394531 5.324219 1339.707031 5.453125 C 1340.019531 5.585938 1340.292969 5.769531 1340.53125 6.007812 C 1340.769531 6.246094 1340.953125 6.519531 1341.082031 6.832031 C 1341.210938 7.144531 1341.277344 7.46875 1341.277344 7.804688 Z M 1341.277344 7.804688 "/><path style=" stroke:none;fill-rule:nonzero;fill:#fcfcfd;fill-opacity:1;" d="M 1229.304688 221.878906 C 1229.304688 222.21875 1229.238281 222.542969 1229.109375 222.855469 C 1228.980469 223.164062 1228.796875 223.441406 1228.558594 223.679688 C 1228.320312 223.917969 1228.042969 224.101562 1227.734375 224.230469 C 1227.421875 224.359375 1227.097656 224.425781 1226.757812 224.425781 C 1226.421875 224.425781 1226.097656 224.359375 1225.785156 224.230469 C 1225.472656 224.101562 1225.199219 223.917969 1224.960938 223.679688 C 1224.71875 223.441406 1224.535156 223.164062 1224.40625 222.855469 C 1224.277344 222.542969 1224.214844 222.21875 1224.214844 221.878906 C 1224.214844 221.542969 1224.277344 221.21875 1224.40625 220.90625 C 1224.535156 220.59375 1224.71875 220.320312 1224.960938 220.082031 C 1225.199219 219.84375 1225.472656 219.660156 1225.785156 219.53125 C 1226.097656 219.402344 1226.421875 219.335938 1226.757812 219.335938 C 1227.097656 219.335938 1227.421875 219.402344 1227.734375 219.53125 C 1228.042969 219.660156 1228.320312 219.84375 1228.558594 220.082031 C 1228.796875 220.320312 1228.980469 220.59375 1229.109375 220.90625 C 1229.238281 221.21875 1229.304688 221.542969 1229.304688 221.878906 Z M 1229.304688 221.878906 "/><path style=" stroke:none;fill-rule:nonzero;fill:#fcfcfd;fill-opacity:1;" d="M 1350.183594 98.097656 C 1350.183594 98.433594 1350.121094 98.761719 1349.992188 99.070312 C 1349.863281 99.382812 1349.675781 99.660156 1349.4375 99.898438 C 1349.199219 100.136719 1348.925781 100.320312 1348.613281 100.449219 C 1348.300781 100.578125 1347.976562 100.640625 1347.640625 100.640625 C 1347.300781 100.640625 1346.976562 100.578125 1346.664062 100.449219 C 1346.355469 100.320312 1346.078125 100.136719 1345.839844 99.898438 C 1345.601562 99.660156 1345.417969 99.382812 1345.289062 99.070312 C 1345.160156 98.761719 1345.09375 98.433594 1345.09375 98.097656 C 1345.09375 97.761719 1345.160156 97.4375 1345.289062 97.125 C 1345.417969 96.8125 1345.601562 96.539062 1345.839844 96.300781 C 1346.078125 96.0625 1346.355469 95.878906 1346.664062 95.75 C 1346.976562 95.621094 1347.300781 95.554688 1347.640625 95.554688 C 1347.976562 95.554688 1348.300781 95.621094 1348.613281 95.75 C 1348.925781 95.878906 1349.199219 96.0625 1349.4375 96.300781 C 1349.675781 96.539062 1349.863281 96.8125 1349.992188 97.125 C 1350.121094 97.4375 1350.183594 97.761719 1350.183594 98.097656 Z M 1350.183594 98.097656 "/><path style=" stroke:none;fill-rule:nonzero;fill:#fcfcfd;fill-opacity:1;" d="M 1120.296875 193.085938 C 1120.296875 193.421875 1120.261719 193.753906 1120.199219 194.082031 C 1120.132812 194.410156 1120.035156 194.730469 1119.90625 195.042969 C 1119.777344 195.351562 1119.621094 195.644531 1119.433594 195.925781 C 1119.246094 196.203125 1119.035156 196.464844 1118.796875 196.699219 C 1118.558594 196.9375 1118.300781 197.148438 1118.023438 197.335938 C 1117.742188 197.523438 1117.449219 197.679688 1117.136719 197.808594 C 1116.828125 197.9375 1116.507812 198.035156 1116.175781 198.101562 C 1115.847656 198.164062 1115.515625 198.199219 1115.179688 198.199219 C 1114.84375 198.199219 1114.511719 198.164062 1114.179688 198.101562 C 1113.851562 198.035156 1113.53125 197.9375 1113.222656 197.808594 C 1112.910156 197.679688 1112.617188 197.523438 1112.335938 197.335938 C 1112.058594 197.148438 1111.800781 196.9375 1111.5625 196.699219 C 1111.324219 196.464844 1111.113281 196.203125 1110.925781 195.925781 C 1110.738281 195.644531 1110.582031 195.351562 1110.453125 195.042969 C 1110.324219 194.730469 1110.226562 194.410156 1110.160156 194.082031 C 1110.097656 193.753906 1110.0625 193.421875 1110.0625 193.085938 C 1110.0625 192.75 1110.097656 192.417969 1110.160156 192.085938 C 1110.226562 191.757812 1110.324219 191.4375 1110.453125 191.128906 C 1110.582031 190.816406 1110.738281 190.523438 1110.925781 190.242188 C 1111.113281 189.964844 1111.324219 189.707031 1111.5625 189.46875 C 1111.800781 189.230469 1112.058594 189.019531 1112.335938 188.832031 C 1112.617188 188.644531 1112.910156 188.488281 1113.222656 188.359375 C 1113.53125 188.230469 1113.851562 188.132812 1114.179688 188.070312 C 1114.511719 188.003906 1114.84375 187.972656 1115.179688 187.972656 C 1115.515625 187.972656 1115.847656 188.003906 1116.175781 188.070312 C 1116.507812 188.132812 1116.828125 188.230469 1117.136719 188.359375 C 1117.449219 188.488281 1117.742188 188.644531 1118.023438 188.832031 C 1118.300781 189.019531 1118.558594 189.230469 1118.796875 189.46875 C 1119.035156 189.707031 1119.246094 189.964844 1119.433594 190.242188 C 1119.621094 190.523438 1119.777344 190.816406 1119.90625 191.128906 C 1120.035156 191.4375 1120.132812 191.757812 1120.199219 192.085938 C 1120.261719 192.417969 1120.296875 192.75 1120.296875 193.085938 Z M 1120.296875 193.085938 "/><path style=" stroke:none;fill-rule:nonzero;fill:#fcfcfd;fill-opacity:1;" d="M 1205.128906 42.140625 C 1205.128906 42.648438 1205.03125 43.132812 1204.835938 43.601562 C 1204.644531 44.070312 1204.367188 44.480469 1204.007812 44.839844 C 1203.652344 45.195312 1203.238281 45.472656 1202.769531 45.667969 C 1202.304688 45.859375 1201.816406 45.957031 1201.308594 45.957031 C 1200.804688 45.957031 1200.316406 45.859375 1199.847656 45.667969 C 1199.382812 45.472656 1198.96875 45.195312 1198.609375 44.839844 C 1198.253906 44.480469 1197.976562 44.070312 1197.785156 43.601562 C 1197.589844 43.132812 1197.492188 42.648438 1197.492188 42.140625 C 1197.492188 41.636719 1197.589844 41.148438 1197.785156 40.683594 C 1197.976562 40.214844 1198.253906 39.800781 1198.609375 39.445312 C 1198.96875 39.085938 1199.382812 38.808594 1199.847656 38.617188 C 1200.316406 38.421875 1200.804688 38.328125 1201.308594 38.328125 C 1201.816406 38.328125 1202.304688 38.421875 1202.769531 38.617188 C 1203.238281 38.808594 1203.652344 39.085938 1204.007812 39.445312 C 1204.367188 39.800781 1204.644531 40.214844 1204.835938 40.683594 C 1205.03125 41.148438 1205.128906 41.636719 1205.128906 42.140625 Z M 1205.128906 42.140625 "/><path style=" stroke:none;fill-rule:nonzero;fill:#fcfcfd;fill-opacity:1;" d="M 1437.980469 101.914062 C 1437.980469 102.417969 1437.886719 102.90625 1437.691406 103.375 C 1437.496094 103.839844 1437.222656 104.253906 1436.863281 104.609375 C 1436.503906 104.96875 1436.09375 105.246094 1435.625 105.4375 C 1435.15625 105.632812 1434.671875 105.730469 1434.164062 105.730469 C 1433.660156 105.730469 1433.171875 105.632812 1432.703125 105.4375 C 1432.234375 105.246094 1431.824219 104.96875 1431.464844 104.609375 C 1431.105469 104.253906 1430.832031 103.839844 1430.636719 103.375 C 1430.445312 102.90625 1430.347656 102.417969 1430.347656 101.914062 C 1430.347656 101.40625 1430.445312 100.921875 1430.636719 100.453125 C 1430.832031 99.984375 1431.105469 99.574219 1431.464844 99.214844 C 1431.824219 98.859375 1432.234375 98.582031 1432.703125 98.390625 C 1433.171875 98.195312 1433.660156 98.097656 1434.164062 98.097656 C 1434.671875 98.097656 1435.15625 98.195312 1435.625 98.390625 C 1436.09375 98.582031 1436.503906 98.859375 1436.863281 99.214844 C 1437.222656 99.574219 1437.496094 99.984375 1437.691406 100.453125 C 1437.886719 100.921875 1437.980469 101.40625 1437.980469 101.914062 Z M 1437.980469 101.914062 "/><g clip-rule="nonzero" clip-path="url(#dc878165c4)"><path style=" stroke:none;fill-rule:nonzero;fill:#fcfcfd;fill-opacity:1;" d="M 1411.261719 231.632812 C 1411.261719 232.136719 1411.164062 232.625 1410.96875 233.089844 C 1410.777344 233.558594 1410.5 233.972656 1410.144531 234.328125 C 1409.785156 234.6875 1409.371094 234.960938 1408.902344 235.15625 C 1408.4375 235.347656 1407.949219 235.445312 1407.445312 235.445312 C 1406.9375 235.445312 1406.449219 235.347656 1405.984375 235.15625 C 1405.515625 234.960938 1405.101562 234.6875 1404.746094 234.328125 C 1404.386719 233.972656 1404.109375 233.558594 1403.917969 233.089844 C 1403.722656 232.625 1403.625 232.136719 1403.625 231.632812 C 1403.625 231.125 1403.722656 230.636719 1403.917969 230.171875 C 1404.109375 229.703125 1404.386719 229.289062 1404.746094 228.933594 C 1405.101562 228.574219 1405.515625 228.300781 1405.984375 228.105469 C 1406.449219 227.914062 1406.9375 227.816406 1407.445312 227.816406 C 1407.949219 227.816406 1408.4375 227.914062 1408.902344 228.105469 C 1409.371094 228.300781 1409.785156 228.574219 1410.144531 228.933594 C 1410.5 229.289062 1410.777344 229.703125 1410.96875 230.171875 C 1411.164062 230.636719 1411.261719 231.125 1411.261719 231.632812 Z M 1411.261719 231.632812 "/></g><path style=" stroke:none;fill-rule:nonzero;fill:#fcfcfd;fill-opacity:1;" d="M 1159.320312 5.261719 C 1159.320312 5.765625 1159.222656 6.253906 1159.03125 6.722656 C 1158.835938 7.1875 1158.558594 7.601562 1158.203125 7.960938 C 1157.84375 8.316406 1157.429688 8.59375 1156.964844 8.785156 C 1156.496094 8.980469 1156.007812 9.078125 1155.503906 9.078125 C 1154.996094 9.078125 1154.507812 8.980469 1154.042969 8.785156 C 1153.574219 8.59375 1153.160156 8.316406 1152.804688 7.960938 C 1152.445312 7.601562 1152.167969 7.1875 1151.976562 6.722656 C 1151.78125 6.253906 1151.683594 5.765625 1151.683594 5.261719 C 1151.683594 4.753906 1151.78125 4.269531 1151.976562 3.800781 C 1152.167969 3.332031 1152.445312 2.921875 1152.804688 2.5625 C 1153.160156 2.207031 1153.574219 1.929688 1154.042969 1.738281 C 1154.507812 1.542969 1154.996094 1.445312 1155.503906 1.445312 C 1156.007812 1.445312 1156.496094 1.542969 1156.964844 1.738281 C 1157.429688 1.929688 1157.84375 2.207031 1158.203125 2.5625 C 1158.558594 2.921875 1158.835938 3.332031 1159.03125 3.800781 C 1159.222656 4.269531 1159.320312 4.753906 1159.320312 5.261719 Z M 1159.320312 5.261719 "/><path style=" stroke:none;fill-rule:nonzero;fill:#fcfcfd;fill-opacity:1;" d="M 1441.800781 219.335938 C 1441.800781 219.84375 1441.703125 220.328125 1441.507812 220.796875 C 1441.316406 221.265625 1441.039062 221.675781 1440.679688 222.035156 C 1440.324219 222.390625 1439.910156 222.667969 1439.441406 222.863281 C 1438.976562 223.054688 1438.488281 223.152344 1437.980469 223.152344 C 1437.476562 223.152344 1436.988281 223.054688 1436.519531 222.863281 C 1436.054688 222.667969 1435.640625 222.390625 1435.28125 222.035156 C 1434.925781 221.675781 1434.648438 221.265625 1434.453125 220.796875 C 1434.261719 220.328125 1434.164062 219.84375 1434.164062 219.335938 C 1434.164062 218.832031 1434.261719 218.34375 1434.453125 217.875 C 1434.648438 217.410156 1434.925781 216.996094 1435.28125 216.640625 C 1435.640625 216.28125 1436.054688 216.003906 1436.519531 215.8125 C 1436.988281 215.617188 1437.476562 215.523438 1437.980469 215.523438 C 1438.488281 215.523438 1438.976562 215.617188 1439.441406 215.8125 C 1439.910156 216.003906 1440.324219 216.28125 1440.679688 216.640625 C 1441.039062 216.996094 1441.316406 217.410156 1441.507812 217.875 C 1441.703125 218.34375 1441.800781 218.832031 1441.800781 219.335938 Z M 1441.800781 219.335938 "/><path style=" stroke:none;fill-rule:nonzero;fill:#fcfcfd;fill-opacity:1;" d="M 1320.621094 103 C 1320.621094 103.273438 1320.566406 103.535156 1320.460938 103.789062 C 1320.359375 104.039062 1320.210938 104.261719 1320.015625 104.457031 C 1319.824219 104.648438 1319.601562 104.796875 1319.347656 104.902344 C 1319.09375 105.007812 1318.832031 105.058594 1318.558594 105.058594 C 1318.285156 105.058594 1318.023438 105.007812 1317.769531 104.902344 C 1317.519531 104.796875 1317.296875 104.648438 1317.101562 104.457031 C 1316.910156 104.261719 1316.761719 104.039062 1316.65625 103.789062 C 1316.550781 103.535156 1316.5 103.273438 1316.5 103 C 1316.5 102.726562 1316.550781 102.464844 1316.65625 102.210938 C 1316.761719 101.960938 1316.910156 101.738281 1317.101562 101.542969 C 1317.296875 101.351562 1317.519531 101.203125 1317.769531 101.097656 C 1318.023438 100.992188 1318.285156 100.941406 1318.558594 100.941406 C 1318.832031 100.941406 1319.09375 100.992188 1319.347656 101.097656 C 1319.601562 101.203125 1319.824219 101.351562 1320.015625 101.542969 C 1320.210938 101.738281 1320.359375 101.960938 1320.460938 102.210938 C 1320.566406 102.464844 1320.621094 102.726562 1320.621094 103 Z M 1320.621094 103 "/><path style=" stroke:none;fill-rule:nonzero;fill:#fcfcfd;fill-opacity:1;" d="M 993.90625 5.261719 C 993.90625 5.765625 993.808594 6.253906 993.613281 6.722656 C 993.421875 7.1875 993.144531 7.601562 992.785156 7.960938 C 992.429688 8.316406 992.015625 8.59375 991.546875 8.785156 C 991.082031 8.980469 990.59375 9.078125 990.085938 9.078125 C 989.582031 9.078125 989.09375 8.980469 988.625 8.785156 C 988.160156 8.59375 987.746094 8.316406 987.386719 7.960938 C 987.03125 7.601562 986.753906 7.1875 986.558594 6.722656 C 986.367188 6.253906 986.269531 5.765625 986.269531 5.261719 C 986.269531 4.753906 986.367188 4.269531 986.558594 3.800781 C 986.753906 3.332031 987.03125 2.921875 987.386719 2.5625 C 987.746094 2.207031 988.160156 1.929688 988.625 1.738281 C 989.09375 1.542969 989.582031 1.445312 990.085938 1.445312 C 990.59375 1.445312 991.082031 1.542969 991.546875 1.738281 C 992.015625 1.929688 992.429688 2.207031 992.785156 2.5625 C 993.144531 2.921875 993.421875 3.332031 993.613281 3.800781 C 993.808594 4.269531 993.90625 4.753906 993.90625 5.261719 Z M 993.90625 5.261719 "/><path style=" stroke:none;fill-rule:nonzero;fill:#fcfcfd;fill-opacity:1;" d="M 1354.109375 47.230469 L 1354.859375 52.378906 C 1354.894531 52.617188 1355 52.832031 1355.171875 53.003906 C 1355.34375 53.171875 1355.5625 53.289062 1355.796875 53.320312 L 1360.949219 54.0625 L 1355.796875 54.8125 C 1355.558594 54.847656 1355.339844 54.953125 1355.171875 55.125 C 1355.003906 55.292969 1354.886719 55.515625 1354.855469 55.75 L 1354.109375 60.898438 L 1353.363281 55.75 C 1353.328125 55.511719 1353.21875 55.296875 1353.046875 55.125 C 1352.875 54.957031 1352.660156 54.839844 1352.421875 54.808594 L 1347.273438 54.0625 L 1352.425781 53.316406 C 1352.664062 53.28125 1352.878906 53.175781 1353.050781 53.003906 C 1353.21875 52.835938 1353.332031 52.613281 1353.367188 52.378906 Z M 1354.109375 47.230469 "/><path style=" stroke:none;fill-rule:nonzero;fill:#fcfcfd;fill-opacity:1;" d="M 34.613281 627.601562 L 35.242188 631.941406 C 35.269531 632.140625 35.359375 632.320312 35.503906 632.464844 C 35.648438 632.605469 35.832031 632.703125 36.03125 632.730469 L 40.363281 633.359375 L 36.027344 633.988281 C 35.828125 634.019531 35.648438 634.109375 35.503906 634.253906 C 35.363281 634.394531 35.265625 634.582031 35.238281 634.777344 L 34.613281 639.113281 L 33.980469 634.777344 C 33.953125 634.578125 33.863281 634.394531 33.71875 634.25 C 33.574219 634.109375 33.390625 634.011719 33.191406 633.984375 L 28.859375 633.359375 L 33.195312 632.726562 C 33.394531 632.699219 33.574219 632.609375 33.71875 632.464844 C 33.859375 632.324219 33.957031 632.136719 33.984375 631.9375 Z M 34.613281 627.601562 "/><path style=" stroke:none;fill-rule:nonzero;fill:#fcfcfd;fill-opacity:1;" d="M 40.367188 753.585938 L 40.996094 757.925781 C 41.023438 758.125 41.113281 758.304688 41.257812 758.449219 C 41.402344 758.59375 41.585938 758.6875 41.785156 758.714844 L 46.117188 759.34375 L 41.78125 759.972656 C 41.582031 760.003906 41.402344 760.09375 41.257812 760.238281 C 41.117188 760.378906 41.019531 760.566406 40.992188 760.761719 L 40.367188 765.101562 L 39.738281 760.761719 C 39.707031 760.5625 39.617188 760.378906 39.472656 760.234375 C 39.328125 760.09375 39.144531 759.996094 38.945312 759.96875 L 34.613281 759.34375 L 38.949219 758.714844 C 39.148438 758.683594 39.328125 758.59375 39.472656 758.449219 C 39.613281 758.308594 39.710938 758.121094 39.738281 757.921875 Z M 40.367188 753.585938 "/><path style=" stroke:none;fill-rule:nonzero;fill:#fcfcfd;fill-opacity:1;" d="M 493.792969 690.792969 L 495.007812 699.171875 C 495.066406 699.554688 495.238281 699.90625 495.519531 700.1875 C 495.796875 700.460938 496.152344 700.644531 496.535156 700.699219 L 504.898438 701.90625 L 496.53125 703.125 C 496.144531 703.179688 495.792969 703.355469 495.515625 703.632812 C 495.238281 703.910156 495.054688 704.265625 495.003906 704.652344 L 493.792969 713.019531 L 492.578125 704.644531 C 492.519531 704.261719 492.347656 703.910156 492.066406 703.628906 C 491.789062 703.355469 491.4375 703.171875 491.050781 703.117188 L 482.6875 701.90625 L 491.058594 700.691406 C 491.441406 700.632812 491.792969 700.460938 492.074219 700.179688 C 492.347656 699.90625 492.53125 699.550781 492.585938 699.164062 Z M 493.792969 690.792969 "/><path style=" stroke:none;fill-rule:nonzero;fill:#fcfcfd;fill-opacity:1;" d="M 6.78125 632.957031 L 8.347656 643.753906 C 8.425781 644.25 8.648438 644.703125 9.007812 645.0625 C 9.367188 645.417969 9.820312 645.652344 10.316406 645.722656 L 21.097656 647.28125 L 10.308594 648.851562 C 9.8125 648.925781 9.359375 649.148438 9 649.511719 C 8.648438 649.863281 8.410156 650.324219 8.34375 650.820312 L 6.78125 661.609375 L 5.214844 650.8125 C 5.140625 650.316406 4.917969 649.859375 4.558594 649.5 C 4.199219 649.148438 3.746094 648.910156 3.25 648.84375 L -7.535156 647.28125 L 3.257812 645.714844 C 3.753906 645.640625 4.207031 645.414062 4.566406 645.054688 C 4.917969 644.703125 5.15625 644.242188 5.222656 643.746094 Z M 6.78125 632.957031 "/><path style=" stroke:none;fill-rule:nonzero;fill:#fcfcfd;fill-opacity:1;" d="M 101.953125 657.589844 C 101.953125 658.015625 101.871094 658.425781 101.707031 658.820312 C 101.542969 659.214844 101.3125 659.5625 101.011719 659.863281 C 100.710938 660.164062 100.363281 660.398438 99.96875 660.558594 C 99.578125 660.722656 99.167969 660.804688 98.742188 660.804688 C 98.316406 660.804688 97.90625 660.722656 97.511719 660.558594 C 97.117188 660.398438 96.769531 660.164062 96.46875 659.863281 C 96.167969 659.5625 95.9375 659.214844 95.773438 658.820312 C 95.609375 658.425781 95.53125 658.015625 95.53125 657.589844 C 95.53125 657.164062 95.609375 656.753906 95.773438 656.363281 C 95.9375 655.96875 96.167969 655.621094 96.46875 655.320312 C 96.769531 655.019531 97.117188 654.785156 97.511719 654.621094 C 97.90625 654.460938 98.316406 654.378906 98.742188 654.378906 C 99.167969 654.378906 99.578125 654.460938 99.96875 654.621094 C 100.363281 654.785156 100.710938 655.019531 101.011719 655.320312 C 101.3125 655.621094 101.542969 655.96875 101.707031 656.363281 C 101.871094 656.753906 101.953125 657.164062 101.953125 657.589844 Z M 101.953125 657.589844 "/><path style=" stroke:none;fill-rule:nonzero;fill:#fcfcfd;fill-opacity:1;" d="M 119.078125 637.242188 C 119.078125 637.523438 119.023438 637.796875 118.914062 638.058594 C 118.804688 638.324219 118.652344 638.554688 118.449219 638.753906 C 118.25 638.957031 118.019531 639.109375 117.757812 639.21875 C 117.492188 639.328125 117.222656 639.382812 116.9375 639.382812 C 116.652344 639.382812 116.378906 639.328125 116.117188 639.21875 C 115.855469 639.109375 115.625 638.957031 115.421875 638.753906 C 115.222656 638.554688 115.066406 638.324219 114.960938 638.058594 C 114.851562 637.796875 114.796875 637.523438 114.796875 637.242188 C 114.796875 636.957031 114.851562 636.683594 114.960938 636.421875 C 115.066406 636.160156 115.222656 635.925781 115.421875 635.726562 C 115.625 635.523438 115.855469 635.371094 116.117188 635.261719 C 116.378906 635.152344 116.652344 635.097656 116.9375 635.097656 C 117.222656 635.097656 117.492188 635.152344 117.757812 635.261719 C 118.019531 635.371094 118.25 635.523438 118.449219 635.726562 C 118.652344 635.925781 118.804688 636.160156 118.914062 636.421875 C 119.023438 636.683594 119.078125 636.957031 119.078125 637.242188 Z M 119.078125 637.242188 "/><path style=" stroke:none;fill-rule:nonzero;fill:#fcfcfd;fill-opacity:1;" d="M 164.03125 755.058594 C 164.03125 755.34375 163.976562 755.617188 163.871094 755.878906 C 163.761719 756.140625 163.605469 756.371094 163.40625 756.574219 C 163.203125 756.773438 162.972656 756.929688 162.710938 757.039062 C 162.449219 757.144531 162.175781 757.199219 161.890625 757.199219 C 161.609375 757.199219 161.335938 757.144531 161.074219 757.039062 C 160.808594 756.929688 160.578125 756.773438 160.378906 756.574219 C 160.175781 756.371094 160.023438 756.140625 159.914062 755.878906 C 159.804688 755.617188 159.75 755.34375 159.75 755.058594 C 159.75 754.773438 159.804688 754.5 159.914062 754.238281 C 160.023438 753.976562 160.175781 753.746094 160.378906 753.542969 C 160.578125 753.34375 160.808594 753.1875 161.074219 753.078125 C 161.335938 752.96875 161.609375 752.917969 161.890625 752.917969 C 162.175781 752.917969 162.449219 752.96875 162.710938 753.078125 C 162.972656 753.1875 163.203125 753.34375 163.40625 753.542969 C 163.605469 753.746094 163.761719 753.976562 163.871094 754.238281 C 163.976562 754.5 164.03125 754.773438 164.03125 755.058594 Z M 164.03125 755.058594 "/><path style=" stroke:none;fill-rule:nonzero;fill:#fcfcfd;fill-opacity:1;" d="M 256.082031 726.140625 C 256.082031 726.421875 256.027344 726.695312 255.921875 726.960938 C 255.8125 727.222656 255.65625 727.453125 255.457031 727.652344 C 255.253906 727.855469 255.023438 728.011719 254.761719 728.117188 C 254.5 728.226562 254.226562 728.28125 253.941406 728.28125 C 253.660156 728.28125 253.386719 728.226562 253.121094 728.117188 C 252.859375 728.011719 252.628906 727.855469 252.429688 727.652344 C 252.226562 727.453125 252.074219 727.222656 251.964844 726.960938 C 251.855469 726.695312 251.800781 726.421875 251.800781 726.140625 C 251.800781 725.855469 251.855469 725.582031 251.964844 725.320312 C 252.074219 725.058594 252.226562 724.824219 252.429688 724.625 C 252.628906 724.425781 252.859375 724.269531 253.121094 724.160156 C 253.386719 724.050781 253.660156 723.996094 253.941406 723.996094 C 254.226562 723.996094 254.5 724.050781 254.761719 724.160156 C 255.023438 724.269531 255.253906 724.425781 255.457031 724.625 C 255.65625 724.824219 255.8125 725.058594 255.921875 725.320312 C 256.027344 725.582031 256.082031 725.855469 256.082031 726.140625 Z M 256.082031 726.140625 "/><path style=" stroke:none;fill-rule:nonzero;fill:#fcfcfd;fill-opacity:1;" d="M 196.144531 702.574219 C 196.144531 702.859375 196.089844 703.132812 195.980469 703.394531 C 195.871094 703.65625 195.71875 703.890625 195.515625 704.089844 C 195.316406 704.292969 195.082031 704.445312 194.820312 704.554688 C 194.558594 704.664062 194.285156 704.71875 194.003906 704.71875 C 193.71875 704.71875 193.445312 704.664062 193.183594 704.554688 C 192.921875 704.445312 192.6875 704.292969 192.488281 704.089844 C 192.289062 703.890625 192.132812 703.65625 192.023438 703.394531 C 191.914062 703.132812 191.863281 702.859375 191.863281 702.574219 C 191.863281 702.292969 191.914062 702.019531 192.023438 701.757812 C 192.132812 701.492188 192.289062 701.261719 192.488281 701.0625 C 192.6875 700.859375 192.921875 700.707031 193.183594 700.597656 C 193.445312 700.488281 193.71875 700.433594 194.003906 700.433594 C 194.285156 700.433594 194.558594 700.488281 194.820312 700.597656 C 195.082031 700.707031 195.316406 700.859375 195.515625 701.0625 C 195.71875 701.261719 195.871094 701.492188 195.980469 701.757812 C 196.089844 702.019531 196.144531 702.292969 196.144531 702.574219 Z M 196.144531 702.574219 "/><path style=" stroke:none;fill-rule:nonzero;fill:#fcfcfd;fill-opacity:1;" d="M 196.144531 691.867188 C 196.144531 692.148438 196.089844 692.421875 195.980469 692.683594 C 195.871094 692.949219 195.71875 693.179688 195.515625 693.378906 C 195.316406 693.582031 195.082031 693.734375 194.820312 693.84375 C 194.558594 693.953125 194.285156 694.007812 194.003906 694.007812 C 193.71875 694.007812 193.445312 693.953125 193.183594 693.84375 C 192.921875 693.734375 192.6875 693.582031 192.488281 693.378906 C 192.289062 693.179688 192.132812 692.949219 192.023438 692.683594 C 191.914062 692.421875 191.863281 692.148438 191.863281 691.867188 C 191.863281 691.582031 191.914062 691.308594 192.023438 691.046875 C 192.132812 690.78125 192.289062 690.550781 192.488281 690.351562 C 192.6875 690.148438 192.921875 689.996094 193.183594 689.886719 C 193.445312 689.777344 193.71875 689.722656 194.003906 689.722656 C 194.285156 689.722656 194.558594 689.777344 194.820312 689.886719 C 195.082031 689.996094 195.316406 690.148438 195.515625 690.351562 C 195.71875 690.550781 195.871094 690.78125 195.980469 691.046875 C 196.089844 691.308594 196.144531 691.582031 196.144531 691.867188 Z M 196.144531 691.867188 "/><path style=" stroke:none;fill-rule:nonzero;fill:#fcfcfd;fill-opacity:1;" d="M 154.398438 685.4375 C 154.398438 685.722656 154.34375 685.996094 154.234375 686.257812 C 154.128906 686.519531 153.972656 686.753906 153.773438 686.953125 C 153.570312 687.15625 153.339844 687.308594 153.078125 687.417969 C 152.816406 687.527344 152.542969 687.582031 152.257812 687.582031 C 151.976562 687.582031 151.703125 687.527344 151.4375 687.417969 C 151.175781 687.308594 150.945312 687.15625 150.746094 686.953125 C 150.542969 686.753906 150.390625 686.519531 150.28125 686.257812 C 150.171875 685.996094 150.117188 685.722656 150.117188 685.4375 C 150.117188 685.15625 150.171875 684.882812 150.28125 684.617188 C 150.390625 684.355469 150.542969 684.125 150.746094 683.925781 C 150.945312 683.722656 151.175781 683.570312 151.4375 683.460938 C 151.703125 683.351562 151.976562 683.296875 152.257812 683.296875 C 152.542969 683.296875 152.816406 683.351562 153.078125 683.460938 C 153.339844 683.570312 153.570312 683.722656 153.773438 683.925781 C 153.972656 684.125 154.128906 684.355469 154.234375 684.617188 C 154.34375 684.882812 154.398438 685.15625 154.398438 685.4375 Z M 154.398438 685.4375 "/><g clip-rule="nonzero" clip-path="url(#826e9525a2)"><path style=" stroke:none;fill-rule:nonzero;fill:#fcfcfd;fill-opacity:1;" d="M 218.621094 599.753906 C 218.621094 600.039062 218.566406 600.3125 218.457031 600.574219 C 218.347656 600.835938 218.195312 601.066406 217.992188 601.269531 C 217.792969 601.46875 217.5625 601.625 217.300781 601.730469 C 217.035156 601.839844 216.765625 601.894531 216.480469 601.894531 C 216.195312 601.894531 215.921875 601.839844 215.660156 601.730469 C 215.398438 601.625 215.167969 601.46875 214.964844 601.269531 C 214.765625 601.066406 214.609375 600.835938 214.503906 600.574219 C 214.394531 600.3125 214.339844 600.039062 214.339844 599.753906 C 214.339844 599.46875 214.394531 599.195312 214.503906 598.933594 C 214.609375 598.671875 214.765625 598.4375 214.964844 598.238281 C 215.167969 598.039062 215.398438 597.882812 215.660156 597.773438 C 215.921875 597.664062 216.195312 597.609375 216.480469 597.609375 C 216.765625 597.609375 217.035156 597.664062 217.300781 597.773438 C 217.5625 597.882812 217.792969 598.039062 217.992188 598.238281 C 218.195312 598.4375 218.347656 598.671875 218.457031 598.933594 C 218.566406 599.195312 218.621094 599.46875 218.621094 599.753906 Z M 218.621094 599.753906 "/></g><path style=" stroke:none;fill-rule:nonzero;fill:#fcfcfd;fill-opacity:1;" d="M 263.574219 802.183594 C 263.574219 802.46875 263.519531 802.742188 263.414062 803.003906 C 263.304688 803.269531 263.148438 803.5 262.949219 803.699219 C 262.746094 803.902344 262.515625 804.054688 262.253906 804.164062 C 261.992188 804.273438 261.71875 804.328125 261.433594 804.328125 C 261.152344 804.328125 260.878906 804.273438 260.617188 804.164062 C 260.351562 804.054688 260.121094 803.902344 259.921875 803.699219 C 259.71875 803.5 259.566406 803.269531 259.457031 803.003906 C 259.347656 802.742188 259.292969 802.46875 259.292969 802.183594 C 259.292969 801.902344 259.347656 801.628906 259.457031 801.367188 C 259.566406 801.101562 259.71875 800.871094 259.921875 800.671875 C 260.121094 800.46875 260.351562 800.316406 260.617188 800.207031 C 260.878906 800.097656 261.152344 800.042969 261.433594 800.042969 C 261.71875 800.042969 261.992188 800.097656 262.253906 800.207031 C 262.515625 800.316406 262.746094 800.46875 262.949219 800.671875 C 263.148438 800.871094 263.304688 801.101562 263.414062 801.367188 C 263.519531 801.628906 263.574219 801.902344 263.574219 802.183594 Z M 263.574219 802.183594 "/><path style=" stroke:none;fill-rule:nonzero;fill:#fcfcfd;fill-opacity:1;" d="M 466.941406 775.410156 C 466.941406 775.835938 466.859375 776.246094 466.699219 776.636719 C 466.535156 777.03125 466.304688 777.378906 466.003906 777.679688 C 465.703125 777.980469 465.355469 778.214844 464.960938 778.378906 C 464.566406 778.539062 464.15625 778.621094 463.730469 778.621094 C 463.304688 778.621094 462.894531 778.539062 462.503906 778.378906 C 462.109375 778.214844 461.761719 777.980469 461.460938 777.679688 C 461.160156 777.378906 460.929688 777.03125 460.765625 776.636719 C 460.601562 776.246094 460.519531 775.835938 460.519531 775.410156 C 460.519531 774.984375 460.601562 774.574219 460.765625 774.179688 C 460.929688 773.785156 461.160156 773.4375 461.460938 773.136719 C 461.761719 772.835938 462.109375 772.601562 462.503906 772.441406 C 462.894531 772.277344 463.304688 772.195312 463.730469 772.195312 C 464.15625 772.195312 464.566406 772.277344 464.960938 772.441406 C 465.355469 772.601562 465.703125 772.835938 466.003906 773.136719 C 466.304688 773.4375 466.535156 773.785156 466.699219 774.179688 C 466.859375 774.574219 466.941406 774.984375 466.941406 775.410156 Z M 466.941406 775.410156 "/><path style=" stroke:none;fill-rule:nonzero;fill:#fcfcfd;fill-opacity:1;" d="M 141.554688 755.058594 C 141.554688 755.484375 141.472656 755.894531 141.3125 756.289062 C 141.148438 756.683594 140.914062 757.027344 140.613281 757.332031 C 140.3125 757.632812 139.964844 757.863281 139.574219 758.027344 C 139.179688 758.191406 138.769531 758.273438 138.34375 758.273438 C 137.917969 758.273438 137.507812 758.191406 137.113281 758.027344 C 136.722656 757.863281 136.375 757.632812 136.074219 757.332031 C 135.773438 757.027344 135.539062 756.683594 135.378906 756.289062 C 135.214844 755.894531 135.132812 755.484375 135.132812 755.058594 C 135.132812 754.632812 135.214844 754.222656 135.378906 753.828125 C 135.539062 753.433594 135.773438 753.085938 136.074219 752.785156 C 136.375 752.484375 136.722656 752.253906 137.113281 752.089844 C 137.507812 751.925781 137.917969 751.84375 138.34375 751.84375 C 138.769531 751.84375 139.179688 751.925781 139.574219 752.089844 C 139.964844 752.253906 140.3125 752.484375 140.613281 752.785156 C 140.914062 753.085938 141.148438 753.433594 141.3125 753.828125 C 141.472656 754.222656 141.554688 754.632812 141.554688 755.058594 Z M 141.554688 755.058594 "/><path style=" stroke:none;fill-rule:nonzero;fill:#fcfcfd;fill-opacity:1;" d="M 337.429688 805.398438 C 337.429688 805.824219 337.347656 806.234375 337.183594 806.628906 C 337.023438 807.023438 336.789062 807.371094 336.488281 807.671875 C 336.1875 807.972656 335.839844 808.203125 335.449219 808.367188 C 335.054688 808.53125 334.644531 808.613281 334.21875 808.613281 C 333.792969 808.613281 333.382812 808.53125 332.988281 808.367188 C 332.597656 808.203125 332.25 807.972656 331.949219 807.671875 C 331.648438 807.371094 331.414062 807.023438 331.253906 806.628906 C 331.089844 806.234375 331.007812 805.824219 331.007812 805.398438 C 331.007812 804.972656 331.089844 804.5625 331.253906 804.167969 C 331.414062 803.777344 331.648438 803.429688 331.949219 803.125 C 332.25 802.824219 332.597656 802.59375 332.988281 802.429688 C 333.382812 802.265625 333.792969 802.183594 334.21875 802.183594 C 334.644531 802.183594 335.054688 802.265625 335.449219 802.429688 C 335.839844 802.59375 336.1875 802.824219 336.488281 803.125 C 336.789062 803.429688 337.023438 803.777344 337.183594 804.167969 C 337.347656 804.5625 337.429688 804.972656 337.429688 805.398438 Z M 337.429688 805.398438 "/><path style=" stroke:none;fill-rule:nonzero;fill:#fcfcfd;fill-opacity:1;" d="M 103.023438 723.996094 C 103.023438 724.421875 102.941406 724.832031 102.777344 725.226562 C 102.613281 725.621094 102.382812 725.96875 102.082031 726.269531 C 101.78125 726.570312 101.433594 726.804688 101.039062 726.964844 C 100.648438 727.128906 100.238281 727.210938 99.8125 727.210938 C 99.386719 727.210938 98.976562 727.128906 98.582031 726.964844 C 98.1875 726.804688 97.839844 726.570312 97.539062 726.269531 C 97.238281 725.96875 97.007812 725.621094 96.84375 725.226562 C 96.679688 724.832031 96.601562 724.421875 96.601562 723.996094 C 96.601562 723.570312 96.679688 723.160156 96.84375 722.769531 C 97.007812 722.375 97.238281 722.027344 97.539062 721.726562 C 97.839844 721.425781 98.1875 721.191406 98.582031 721.027344 C 98.976562 720.867188 99.386719 720.785156 99.8125 720.785156 C 100.238281 720.785156 100.648438 720.867188 101.039062 721.027344 C 101.433594 721.191406 101.78125 721.425781 102.082031 721.726562 C 102.382812 722.027344 102.613281 722.375 102.777344 722.769531 C 102.941406 723.160156 103.023438 723.570312 103.023438 723.996094 Z M 103.023438 723.996094 "/><path style=" stroke:none;fill-rule:nonzero;fill:#fcfcfd;fill-opacity:1;" d="M 484.828125 788.28125 C 484.828125 788.5625 484.773438 788.835938 484.667969 789.097656 C 484.558594 789.363281 484.402344 789.59375 484.203125 789.792969 C 484 789.996094 483.769531 790.148438 483.507812 790.257812 C 483.246094 790.367188 482.972656 790.421875 482.6875 790.421875 C 482.40625 790.421875 482.132812 790.367188 481.871094 790.257812 C 481.605469 790.148438 481.375 789.996094 481.175781 789.792969 C 480.972656 789.59375 480.820312 789.363281 480.710938 789.097656 C 480.601562 788.835938 480.546875 788.5625 480.546875 788.28125 C 480.546875 787.996094 480.601562 787.722656 480.710938 787.460938 C 480.820312 787.199219 480.972656 786.964844 481.175781 786.765625 C 481.375 786.5625 481.605469 786.410156 481.871094 786.300781 C 482.132812 786.191406 482.40625 786.136719 482.6875 786.136719 C 482.972656 786.136719 483.246094 786.191406 483.507812 786.300781 C 483.769531 786.410156 484 786.5625 484.203125 786.765625 C 484.402344 786.964844 484.558594 787.199219 484.667969 787.460938 C 484.773438 787.722656 484.828125 787.996094 484.828125 788.28125 Z M 484.828125 788.28125 "/><path style=" stroke:none;fill-rule:nonzero;fill:#fcfcfd;fill-opacity:1;" d="M 496.816406 759.34375 C 496.816406 759.769531 496.734375 760.179688 496.570312 760.574219 C 496.40625 760.964844 496.175781 761.3125 495.875 761.613281 C 495.574219 761.917969 495.226562 762.148438 494.832031 762.3125 C 494.441406 762.472656 494.03125 762.554688 493.605469 762.554688 C 493.179688 762.554688 492.769531 762.472656 492.375 762.3125 C 491.980469 762.148438 491.632812 761.917969 491.332031 761.613281 C 491.03125 761.3125 490.800781 760.964844 490.636719 760.574219 C 490.476562 760.179688 490.394531 759.769531 490.394531 759.34375 C 490.394531 758.917969 490.476562 758.507812 490.636719 758.113281 C 490.800781 757.71875 491.03125 757.371094 491.332031 757.070312 C 491.632812 756.769531 491.980469 756.539062 492.375 756.375 C 492.769531 756.210938 493.179688 756.128906 493.605469 756.128906 C 494.03125 756.128906 494.441406 756.210938 494.832031 756.375 C 495.226562 756.539062 495.574219 756.769531 495.875 757.070312 C 496.175781 757.371094 496.40625 757.71875 496.570312 758.113281 C 496.734375 758.507812 496.816406 758.917969 496.816406 759.34375 Z M 496.816406 759.34375 "/><path style=" stroke:none;fill-rule:nonzero;fill:#fcfcfd;fill-opacity:1;" d="M 238.707031 806.3125 C 238.707031 806.542969 238.660156 806.765625 238.574219 806.976562 C 238.484375 807.191406 238.359375 807.378906 238.199219 807.539062 C 238.035156 807.703125 237.847656 807.828125 237.636719 807.914062 C 237.421875 808.003906 237.203125 808.046875 236.972656 808.046875 C 236.742188 808.046875 236.523438 808.003906 236.308594 807.914062 C 236.097656 807.828125 235.910156 807.703125 235.746094 807.539062 C 235.585938 807.378906 235.460938 807.191406 235.371094 806.976562 C 235.285156 806.765625 235.238281 806.542969 235.238281 806.3125 C 235.238281 806.082031 235.285156 805.863281 235.371094 805.648438 C 235.460938 805.4375 235.585938 805.25 235.746094 805.085938 C 235.910156 804.925781 236.097656 804.800781 236.308594 804.710938 C 236.523438 804.625 236.742188 804.578125 236.972656 804.578125 C 237.203125 804.578125 237.421875 804.625 237.636719 804.710938 C 237.847656 804.800781 238.035156 804.925781 238.199219 805.085938 C 238.359375 805.25 238.484375 805.4375 238.574219 805.648438 C 238.660156 805.863281 238.707031 806.082031 238.707031 806.3125 Z M 238.707031 806.3125 "/><path style=" stroke:none;fill-rule:nonzero;fill:#fcfcfd;fill-opacity:1;" d="M 23.816406 703.648438 C 23.816406 703.929688 23.761719 704.203125 23.652344 704.46875 C 23.542969 704.730469 23.390625 704.960938 23.1875 705.160156 C 22.988281 705.363281 22.757812 705.515625 22.496094 705.625 C 22.230469 705.734375 21.960938 705.789062 21.675781 705.789062 C 21.390625 705.789062 21.117188 705.734375 20.855469 705.625 C 20.59375 705.515625 20.363281 705.363281 20.160156 705.160156 C 19.960938 704.960938 19.804688 704.730469 19.699219 704.46875 C 19.589844 704.203125 19.535156 703.929688 19.535156 703.648438 C 19.535156 703.363281 19.589844 703.089844 19.699219 702.828125 C 19.804688 702.566406 19.960938 702.332031 20.160156 702.132812 C 20.363281 701.929688 20.59375 701.777344 20.855469 701.667969 C 21.117188 701.558594 21.390625 701.503906 21.675781 701.503906 C 21.960938 701.503906 22.230469 701.558594 22.496094 701.667969 C 22.757812 701.777344 22.988281 701.929688 23.1875 702.132812 C 23.390625 702.332031 23.542969 702.566406 23.652344 702.828125 C 23.761719 703.089844 23.816406 703.363281 23.816406 703.648438 Z M 23.816406 703.648438 "/><path style=" stroke:none;fill-rule:nonzero;fill:#fcfcfd;fill-opacity:1;" d="M 266.878906 759.34375 L 267.507812 763.679688 C 267.539062 763.878906 267.628906 764.0625 267.773438 764.207031 C 267.917969 764.347656 268.101562 764.445312 268.296875 764.472656 L 272.632812 765.101562 L 268.296875 765.730469 C 268.097656 765.757812 267.914062 765.847656 267.769531 765.992188 C 267.628906 766.136719 267.53125 766.320312 267.503906 766.519531 L 266.878906 770.855469 L 266.25 766.519531 C 266.21875 766.320312 266.128906 766.136719 265.984375 765.992188 C 265.839844 765.851562 265.65625 765.753906 265.460938 765.726562 L 261.125 765.101562 L 265.460938 764.46875 C 265.660156 764.441406 265.84375 764.351562 265.988281 764.207031 C 266.128906 764.0625 266.222656 763.878906 266.25 763.679688 Z M 266.878906 759.34375 "/><path style=" stroke:none;fill-rule:nonzero;fill:#fcfcfd;fill-opacity:1;" d="M 1302.015625 621.550781 L 1302.765625 626.703125 C 1302.800781 626.941406 1302.90625 627.15625 1303.078125 627.328125 C 1303.25 627.496094 1303.46875 627.609375 1303.703125 627.644531 L 1308.855469 628.386719 L 1303.703125 629.136719 C 1303.464844 629.171875 1303.25 629.277344 1303.078125 629.449219 C 1302.910156 629.617188 1302.792969 629.839844 1302.761719 630.074219 L 1302.015625 635.222656 L 1301.269531 630.070312 C 1301.234375 629.835938 1301.125 629.621094 1300.953125 629.449219 C 1300.78125 629.28125 1300.566406 629.164062 1300.328125 629.132812 L 1295.175781 628.386719 L 1300.332031 627.640625 C 1300.570312 627.605469 1300.785156 627.496094 1300.957031 627.328125 C 1301.125 627.160156 1301.238281 626.9375 1301.269531 626.703125 Z M 1302.015625 621.550781 "/><path style=" stroke:none;fill-rule:nonzero;fill:#fcfcfd;fill-opacity:1;" d="M 1308.855469 771.140625 L 1309.605469 776.292969 C 1309.640625 776.527344 1309.746094 776.746094 1309.917969 776.917969 C 1310.089844 777.085938 1310.308594 777.199219 1310.542969 777.230469 L 1315.695312 777.976562 L 1310.542969 778.722656 C 1310.304688 778.761719 1310.089844 778.867188 1309.917969 779.039062 C 1309.75 779.207031 1309.632812 779.425781 1309.601562 779.664062 L 1308.855469 784.8125 L 1308.109375 779.660156 C 1308.074219 779.421875 1307.964844 779.207031 1307.792969 779.035156 C 1307.621094 778.867188 1307.40625 778.753906 1307.171875 778.722656 L 1302.015625 777.976562 L 1307.171875 777.230469 C 1307.40625 777.191406 1307.625 777.085938 1307.796875 776.914062 C 1307.964844 776.746094 1308.078125 776.523438 1308.109375 776.289062 Z M 1308.855469 771.140625 "/><path style=" stroke:none;fill-rule:nonzero;fill:#fcfcfd;fill-opacity:1;" d="M 1268.933594 627.910156 L 1270.796875 640.730469 C 1270.886719 641.320312 1271.152344 641.859375 1271.578125 642.285156 C 1272.007812 642.707031 1272.546875 642.988281 1273.136719 643.070312 L 1285.953125 644.921875 L 1273.125 646.785156 C 1272.535156 646.871094 1271.996094 647.136719 1271.570312 647.566406 C 1271.152344 647.984375 1270.867188 648.53125 1270.789062 649.121094 L 1268.933594 661.933594 L 1267.070312 649.109375 C 1266.984375 648.523438 1266.71875 647.984375 1266.289062 647.554688 C 1265.863281 647.136719 1265.324219 646.855469 1264.734375 646.773438 L 1251.914062 644.921875 L 1264.742188 643.058594 C 1265.332031 642.96875 1265.871094 642.703125 1266.296875 642.277344 C 1266.71875 641.859375 1267 641.308594 1267.082031 640.722656 Z M 1268.933594 627.910156 "/><path style=" stroke:none;fill-rule:nonzero;fill:#fcfcfd;fill-opacity:1;" d="M 1382.070312 657.160156 C 1382.070312 657.667969 1381.972656 658.152344 1381.78125 658.621094 C 1381.585938 659.089844 1381.308594 659.5 1380.953125 659.859375 C 1380.59375 660.214844 1380.179688 660.492188 1379.714844 660.6875 C 1379.246094 660.878906 1378.757812 660.976562 1378.253906 660.976562 C 1377.746094 660.976562 1377.261719 660.878906 1376.792969 660.6875 C 1376.324219 660.492188 1375.910156 660.214844 1375.554688 659.859375 C 1375.195312 659.5 1374.921875 659.089844 1374.726562 658.621094 C 1374.53125 658.152344 1374.4375 657.667969 1374.4375 657.160156 C 1374.4375 656.65625 1374.53125 656.167969 1374.726562 655.703125 C 1374.921875 655.234375 1375.195312 654.820312 1375.554688 654.464844 C 1375.910156 654.105469 1376.324219 653.828125 1376.792969 653.636719 C 1377.261719 653.441406 1377.746094 653.347656 1378.253906 653.347656 C 1378.757812 653.347656 1379.246094 653.441406 1379.714844 653.636719 C 1380.179688 653.828125 1380.59375 654.105469 1380.953125 654.464844 C 1381.308594 654.820312 1381.585938 655.234375 1381.78125 655.703125 C 1381.972656 656.167969 1382.070312 656.65625 1382.070312 657.160156 Z M 1382.070312 657.160156 "/><path style=" stroke:none;fill-rule:nonzero;fill:#fcfcfd;fill-opacity:1;" d="M 1402.429688 633 C 1402.429688 633.335938 1402.363281 633.660156 1402.234375 633.972656 C 1402.105469 634.28125 1401.921875 634.558594 1401.683594 634.796875 C 1401.445312 635.035156 1401.167969 635.21875 1400.859375 635.347656 C 1400.546875 635.476562 1400.222656 635.542969 1399.882812 635.542969 C 1399.546875 635.542969 1399.222656 635.476562 1398.910156 635.347656 C 1398.597656 635.21875 1398.324219 635.035156 1398.085938 634.796875 C 1397.847656 634.558594 1397.664062 634.28125 1397.53125 633.972656 C 1397.402344 633.660156 1397.339844 633.335938 1397.339844 633 C 1397.339844 632.660156 1397.402344 632.335938 1397.53125 632.023438 C 1397.664062 631.714844 1397.847656 631.4375 1398.085938 631.199219 C 1398.324219 630.960938 1398.597656 630.777344 1398.910156 630.648438 C 1399.222656 630.519531 1399.546875 630.453125 1399.882812 630.453125 C 1400.222656 630.453125 1400.546875 630.519531 1400.859375 630.648438 C 1401.167969 630.777344 1401.445312 630.960938 1401.683594 631.199219 C 1401.921875 631.4375 1402.105469 631.714844 1402.234375 632.023438 C 1402.363281 632.335938 1402.429688 632.660156 1402.429688 633 Z M 1402.429688 633 "/><path style=" stroke:none;fill-rule:nonzero;fill:#fcfcfd;fill-opacity:1;" d="M 1444.417969 690.226562 C 1444.417969 690.5625 1444.355469 690.886719 1444.226562 691.199219 C 1444.097656 691.511719 1443.914062 691.785156 1443.675781 692.023438 C 1443.433594 692.261719 1443.160156 692.445312 1442.847656 692.578125 C 1442.535156 692.707031 1442.210938 692.769531 1441.875 692.769531 C 1441.535156 692.769531 1441.210938 692.707031 1440.902344 692.578125 C 1440.589844 692.445312 1440.3125 692.261719 1440.074219 692.023438 C 1439.835938 691.785156 1439.652344 691.511719 1439.523438 691.199219 C 1439.394531 690.886719 1439.328125 690.5625 1439.328125 690.226562 C 1439.328125 689.890625 1439.394531 689.566406 1439.523438 689.253906 C 1439.652344 688.941406 1439.835938 688.667969 1440.074219 688.429688 C 1440.3125 688.1875 1440.589844 688.003906 1440.902344 687.875 C 1441.210938 687.746094 1441.535156 687.683594 1441.875 687.683594 C 1442.210938 687.683594 1442.535156 687.746094 1442.847656 687.875 C 1443.160156 688.003906 1443.433594 688.1875 1443.675781 688.429688 C 1443.914062 688.667969 1444.097656 688.941406 1444.226562 689.253906 C 1444.355469 689.566406 1444.417969 689.890625 1444.417969 690.226562 Z M 1444.417969 690.226562 "/><path style=" stroke:none;fill-rule:nonzero;fill:#fcfcfd;fill-opacity:1;" d="M 1429.148438 772.890625 C 1429.148438 773.394531 1429.054688 773.882812 1428.859375 774.347656 C 1428.664062 774.816406 1428.390625 775.230469 1428.03125 775.585938 C 1427.675781 775.945312 1427.261719 776.21875 1426.792969 776.414062 C 1426.324219 776.609375 1425.839844 776.703125 1425.332031 776.703125 C 1424.828125 776.703125 1424.339844 776.609375 1423.871094 776.414062 C 1423.40625 776.21875 1422.992188 775.945312 1422.632812 775.585938 C 1422.277344 775.230469 1422 774.816406 1421.804688 774.347656 C 1421.613281 773.882812 1421.515625 773.394531 1421.515625 772.890625 C 1421.515625 772.382812 1421.613281 771.898438 1421.804688 771.429688 C 1422 770.960938 1422.277344 770.550781 1422.632812 770.191406 C 1422.992188 769.832031 1423.40625 769.558594 1423.871094 769.363281 C 1424.339844 769.171875 1424.828125 769.074219 1425.332031 769.074219 C 1425.839844 769.074219 1426.324219 769.171875 1426.792969 769.363281 C 1427.261719 769.558594 1427.675781 769.832031 1428.03125 770.191406 C 1428.390625 770.550781 1428.664062 770.960938 1428.859375 771.429688 C 1429.054688 771.898438 1429.148438 772.382812 1429.148438 772.890625 Z M 1429.148438 772.890625 "/><path style=" stroke:none;fill-rule:nonzero;fill:#fcfcfd;fill-opacity:1;" d="M 1383.34375 736.007812 C 1383.34375 736.515625 1383.246094 737 1383.050781 737.46875 C 1382.859375 737.9375 1382.582031 738.347656 1382.222656 738.707031 C 1381.867188 739.066406 1381.453125 739.339844 1380.984375 739.535156 C 1380.519531 739.726562 1380.03125 739.824219 1379.523438 739.824219 C 1379.019531 739.824219 1378.53125 739.726562 1378.066406 739.535156 C 1377.597656 739.339844 1377.183594 739.066406 1376.824219 738.707031 C 1376.46875 738.347656 1376.191406 737.9375 1376 737.46875 C 1375.804688 737 1375.707031 736.515625 1375.707031 736.007812 C 1375.707031 735.503906 1375.804688 735.015625 1376 734.550781 C 1376.191406 734.082031 1376.46875 733.667969 1376.824219 733.3125 C 1377.183594 732.953125 1377.597656 732.679688 1378.066406 732.484375 C 1378.53125 732.289062 1379.019531 732.195312 1379.523438 732.195312 C 1380.03125 732.195312 1380.519531 732.289062 1380.984375 732.484375 C 1381.453125 732.679688 1381.867188 732.953125 1382.222656 733.3125 C 1382.582031 733.667969 1382.859375 734.082031 1383.050781 734.550781 C 1383.246094 735.015625 1383.34375 735.503906 1383.34375 736.007812 Z M 1383.34375 736.007812 "/><path style=" stroke:none;fill-rule:nonzero;fill:#fcfcfd;fill-opacity:1;" d="M 1289.183594 711.847656 C 1289.183594 712.183594 1289.117188 712.507812 1288.988281 712.820312 C 1288.859375 713.132812 1288.675781 713.40625 1288.4375 713.644531 C 1288.199219 713.882812 1287.921875 714.066406 1287.613281 714.195312 C 1287.300781 714.324219 1286.976562 714.390625 1286.636719 714.390625 C 1286.300781 714.390625 1285.976562 714.324219 1285.664062 714.195312 C 1285.351562 714.066406 1285.078125 713.882812 1284.839844 713.644531 C 1284.601562 713.40625 1284.417969 713.132812 1284.285156 712.820312 C 1284.15625 712.507812 1284.09375 712.183594 1284.09375 711.847656 C 1284.09375 711.507812 1284.15625 711.183594 1284.285156 710.871094 C 1284.417969 710.5625 1284.601562 710.285156 1284.839844 710.046875 C 1285.078125 709.808594 1285.351562 709.625 1285.664062 709.496094 C 1285.976562 709.367188 1286.300781 709.300781 1286.636719 709.300781 C 1286.976562 709.300781 1287.300781 709.367188 1287.613281 709.496094 C 1287.921875 709.625 1288.199219 709.808594 1288.4375 710.046875 C 1288.675781 710.285156 1288.859375 710.5625 1288.988281 710.871094 C 1289.117188 711.183594 1289.183594 711.507812 1289.183594 711.847656 Z M 1289.183594 711.847656 "/><path style=" stroke:none;fill-rule:nonzero;fill:#fcfcfd;fill-opacity:1;" d="M 1217.925781 736.007812 C 1217.925781 736.515625 1217.832031 737 1217.636719 737.46875 C 1217.441406 737.9375 1217.167969 738.347656 1216.808594 738.707031 C 1216.449219 739.066406 1216.039062 739.339844 1215.570312 739.535156 C 1215.101562 739.726562 1214.617188 739.824219 1214.109375 739.824219 C 1213.601562 739.824219 1213.117188 739.726562 1212.648438 739.535156 C 1212.179688 739.339844 1211.769531 739.066406 1211.410156 738.707031 C 1211.050781 738.347656 1210.777344 737.9375 1210.582031 737.46875 C 1210.390625 737 1210.292969 736.515625 1210.292969 736.007812 C 1210.292969 735.503906 1210.390625 735.015625 1210.582031 734.550781 C 1210.777344 734.082031 1211.050781 733.667969 1211.410156 733.3125 C 1211.769531 732.953125 1212.179688 732.679688 1212.648438 732.484375 C 1213.117188 732.289062 1213.601562 732.195312 1214.109375 732.195312 C 1214.617188 732.195312 1215.101562 732.289062 1215.570312 732.484375 C 1216.039062 732.679688 1216.449219 732.953125 1216.808594 733.3125 C 1217.167969 733.667969 1217.441406 734.082031 1217.636719 734.550781 C 1217.832031 735.015625 1217.925781 735.503906 1217.925781 736.007812 Z M 1217.925781 736.007812 "/></g></svg>