<svg xmlns="http://www.w3.org/2000/svg" xmlns:xlink="http://www.w3.org/1999/xlink" width="1920" zoomAndPan="magnify" viewBox="0 0 1440 809.999993" height="1080" preserveAspectRatio="xMidYMid meet" version="1.2"><defs><clipPath id="ee7c8b937c"><path d="M 670 469 L 771.839844 469 L 771.839844 584 L 670 584 Z M 670 469 "/></clipPath></defs><g id="5bf50f6981"><g clip-rule="nonzero" clip-path="url(#ee7c8b937c)"><path style=" stroke:none;fill-rule:nonzero;fill:#ffaa16;fill-opacity:1;" d="M 771.21875 529.855469 C 770.742188 522.265625 762.433594 517.933594 755.808594 521.789062 C 752.5625 523.714844 750.636719 527.328125 750.878906 531.050781 C 751 533.222656 751 535.382812 750.636719 537.554688 C 748.71875 551.390625 737.164062 562.214844 723.082031 563.066406 C 705.28125 564.261719 690.480469 549.828125 691.078125 532.136719 C 691.554688 516.980469 703.707031 504.339844 718.875 503.378906 L 718.996094 503.378906 L 718.996094 510.953125 C 718.996094 515.773438 724.289062 518.65625 728.378906 516.128906 L 756.90625 498.324219 C 760.75 495.921875 760.75 490.382812 756.90625 487.976562 L 728.378906 470.164062 C 724.289062 467.640625 718.996094 470.53125 718.996094 475.339844 L 718.996094 483.039062 C 693.96875 484 673.152344 503.742188 670.859375 528.648438 C 668.214844 560.054688 694.324219 586.164062 725.621094 583.273438 C 750.28125 581.113281 769.898438 560.773438 771.21875 535.992188 C 771.339844 533.941406 771.339844 531.902344 771.21875 529.855469 "/></g></g></svg>